<svg width="30" height="30" viewBox="0 0 30 30" fill="none" xmlns="http://www.w3.org/2000/svg">
<path d="M16.25 18.75L15.5429 19.4571L14.8358 18.75L15.5429 18.0429L16.25 18.75ZM27.5 17.75C28.0523 17.75 28.5 18.1977 28.5 18.75C28.5 19.3023 28.0523 19.75 27.5 19.75L27.5 17.75ZM21.7929 25.7071L15.5429 19.4571L16.9571 18.0429L23.2071 24.2929L21.7929 25.7071ZM15.5429 18.0429L21.7929 11.7929L23.2071 13.2071L16.9571 19.4571L15.5429 18.0429ZM16.25 17.75L27.5 17.75L27.5 19.75L16.25 19.75L16.25 17.75Z" fill="#789FC7"/>
<path d="M13.75 11.25L14.4571 11.9571L15.1642 11.25L14.4571 10.5429L13.75 11.25ZM2.5 10.25C1.94771 10.25 1.5 10.6977 1.5 11.25C1.5 11.8023 1.94771 12.25 2.5 12.25V10.25ZM8.20711 18.2071L14.4571 11.9571L13.0429 10.5429L6.79289 16.7929L8.20711 18.2071ZM14.4571 10.5429L8.20711 4.29289L6.79289 5.70711L13.0429 11.9571L14.4571 10.5429ZM13.75 10.25H2.5V12.25H13.75V10.25Z" fill="#789FC7"/>
</svg>
