<svg width="20" height="20" viewBox="0 0 20 20" fill="none" xmlns="http://www.w3.org/2000/svg">
<path d="M10.833 12.5003L10.1259 13.2074L9.41879 12.5003L10.1259 11.7932L10.833 12.5003ZM18.333 11.5003C18.8853 11.5003 19.333 11.948 19.333 12.5003C19.333 13.0526 18.8853 13.5003 18.333 13.5003L18.333 11.5003ZM14.2926 17.3741L10.1259 13.2074L11.5401 11.7932L15.7068 15.9599L14.2926 17.3741ZM10.1259 11.7932L14.2926 7.62655L15.7068 9.04077L11.5401 13.2074L10.1259 11.7932ZM10.833 11.5003L18.333 11.5003L18.333 13.5003L10.833 13.5003L10.833 11.5003Z" fill="#222224"/>
<path d="M9.16699 7.50033L9.8741 8.20743L10.5812 7.50033L9.8741 6.79322L9.16699 7.50033ZM1.66699 6.50033C1.11471 6.50033 0.666992 6.94804 0.666992 7.50033C0.666992 8.05261 1.11471 8.50033 1.66699 8.50033V6.50033ZM5.70743 12.3741L9.8741 8.20743L8.45989 6.79322L4.29322 10.9599L5.70743 12.3741ZM9.8741 6.79322L5.70743 2.62655L4.29322 4.04077L8.45989 8.20743L9.8741 6.79322ZM9.16699 6.50033H1.66699V8.50033H9.16699V6.50033Z" fill="#222224"/>
</svg>
