<svg width="84" height="16" viewBox="0 0 84 16" fill="none" xmlns="http://www.w3.org/2000/svg">
<path fill-rule="evenodd" clip-rule="evenodd" d="M12.3916 2.019H1.29912C0.926625 2.019 0.609375 2.33625 0.609375 2.72275V3.97825C0.609375 4.3645 0.926625 4.682 1.29912 4.682H12.3916C12.7779 4.682 13.0814 4.36475 13.0954 3.97825V2.7365C13.0954 2.33625 12.7781 2.019 12.3916 2.019ZM12.3916 8.9865H1.29912C1.11962 8.9865 0.940375 9.0555 0.816375 9.1935C0.678375 9.3315 0.609375 9.497 0.609375 9.69025V10.9458C0.609375 11.332 0.926625 11.6495 1.29912 11.6495H12.3916C12.7779 11.6495 13.0814 11.346 13.0954 10.9458V9.69025C13.0816 9.29025 12.7781 8.9865 12.3916 8.9865ZM7.54912 12.4633H1.29912C1.11962 12.4633 0.940375 12.5323 0.816375 12.6703C0.692125 12.8083 0.609375 12.9737 0.609375 13.167V14.4225C0.609375 14.8087 0.926625 15.1263 1.29912 15.1263H7.53537C7.92162 15.1263 8.22512 14.809 8.22512 14.4365V13.181C8.23887 12.767 7.93537 12.4638 7.54912 12.4638V12.4633ZM13.0954 5.49575H1.29912C1.11962 5.49575 0.940375 5.56475 0.816375 5.70275C0.692125 5.84075 0.609375 6.00625 0.609375 6.1995V7.455C0.609375 7.84125 0.926625 8.15875 1.29912 8.15875H13.0816C13.4679 8.15875 13.7714 7.8415 13.7714 7.455V6.1995C13.7851 5.827 13.4679 5.50975 13.0954 5.49575Z" fill="#2DBDEF"/>
<path fill-rule="evenodd" clip-rule="evenodd" d="M25.9949 4.83375C25.6499 4.475 25.2499 4.199 24.7946 4.006C24.3394 3.81275 23.8564 3.71625 23.3599 3.71625C22.8771 3.7025 22.4079 3.81275 21.9664 4.01975C21.6766 4.15775 21.4146 4.35075 21.1936 4.5855V4.36475C21.1936 4.2545 21.1524 4.144 21.0834 4.06125C21.0144 3.9785 20.9041 3.92325 20.7799 3.92325H19.2484C19.1381 3.92325 19.0276 3.96475 18.9586 4.06125C18.8759 4.144 18.8344 4.25425 18.8484 4.36475V14.6847C18.8484 14.795 18.8896 14.9055 18.9586 14.9883C19.0414 15.071 19.1381 15.1125 19.2484 15.1125H20.8214C20.9316 15.1125 21.0284 15.0713 21.1111 14.9885C21.1939 14.9195 21.2491 14.809 21.2354 14.6847V11.1528C21.4561 11.401 21.7459 11.5805 22.0631 11.6907C22.4771 11.8425 22.9049 11.9253 23.3464 11.9253C23.8431 11.9253 24.3396 11.8285 24.7951 11.6355C25.2504 11.4425 25.6641 11.1665 26.0091 10.8078C26.3679 10.4353 26.6439 9.99375 26.8369 9.51075C27.0576 8.97275 27.1541 8.39325 27.1406 7.81375C27.1544 7.23425 27.0439 6.65475 26.8369 6.103C26.6299 5.64775 26.3541 5.20625 25.9951 4.83375H25.9949ZM24.5876 8.57275C24.5049 8.7935 24.3806 8.98675 24.2151 9.166C23.8979 9.511 23.4424 9.704 22.9734 9.704C22.7389 9.704 22.5044 9.6625 22.2836 9.55225C22.0766 9.45575 21.8836 9.3315 21.7179 9.166C21.5524 9.0005 21.4281 8.7935 21.3454 8.57275C21.1659 8.10375 21.1659 7.593 21.3454 7.124C21.4281 6.90325 21.5661 6.71 21.7179 6.5445C21.8834 6.379 22.0766 6.241 22.2836 6.1445C22.5044 6.048 22.7389 5.99275 22.9734 5.99275C23.2216 5.99275 23.4424 6.034 23.6771 6.1445C23.8841 6.241 24.0771 6.36525 24.2289 6.53075C24.3944 6.69625 24.5049 6.8895 24.6014 7.11025C24.7669 7.593 24.7531 8.10375 24.5876 8.57275ZM35.5699 3.937H34.0109C33.9006 3.937 33.7901 3.9785 33.7211 4.06125C33.6384 4.144 33.5971 4.25425 33.5971 4.3785V4.5715C33.4039 4.337 33.1556 4.1575 32.8934 4.0335C32.4656 3.8265 31.9966 3.72975 31.5274 3.72975C30.5201 3.72975 29.5681 4.13 28.8509 4.8335C28.4784 5.206 28.1886 5.6475 27.9954 6.13025C27.7746 6.66825 27.6644 7.24775 27.6781 7.841C27.6644 8.4205 27.7746 9 27.9954 9.55175C28.2024 10.0345 28.4781 10.4762 28.8509 10.8485C29.5546 11.566 30.5204 11.966 31.5136 11.966C31.9826 11.9797 32.4519 11.8693 32.8794 11.6623C33.1414 11.5243 33.4036 11.345 33.5969 11.1243V11.3313C33.5969 11.4415 33.6381 11.552 33.7209 11.6347C33.8036 11.7037 33.9004 11.7588 34.0106 11.7588H35.5696C35.6799 11.7588 35.7904 11.7175 35.8594 11.6347C35.9421 11.552 35.9834 11.4415 35.9834 11.3313V4.3915C35.9834 4.28125 35.9421 4.17075 35.8731 4.088C35.7904 3.9915 35.6799 3.93625 35.5696 3.93625L35.5699 3.937ZM33.4589 8.57275C33.3761 8.7935 33.2519 8.98675 33.0864 9.166C32.9209 9.3315 32.7414 9.4695 32.5346 9.566C32.0931 9.773 31.5826 9.773 31.1411 9.566C30.9341 9.4695 30.7411 9.3315 30.5754 9.166C30.4099 9.0005 30.2856 8.7935 30.2029 8.57275C30.0374 8.10375 30.0374 7.593 30.2029 7.124C30.2856 6.90325 30.4099 6.724 30.5754 6.5445C30.7409 6.379 30.9204 6.241 31.1411 6.1445C31.5826 5.9375 32.0931 5.9375 32.5209 6.1445C32.7279 6.241 32.9211 6.36525 33.0726 6.53075C33.2244 6.69625 33.3486 6.8895 33.4451 7.11025C33.6381 7.593 33.6381 8.10375 33.4589 8.57275ZM51.1051 7.6345C50.8844 7.44125 50.6224 7.27575 50.3464 7.1655C50.0566 7.04125 49.7394 6.9585 49.4359 6.8895L48.2494 6.655C47.9459 6.59975 47.7251 6.517 47.6146 6.4205C47.5181 6.3515 47.4491 6.24125 47.4491 6.117C47.4491 5.993 47.5181 5.8825 47.6699 5.786C47.8769 5.67575 48.0976 5.6205 48.3321 5.63425C48.6356 5.63425 48.9391 5.70325 49.2151 5.81375C49.4911 5.93775 49.7531 6.062 50.0016 6.22775C50.3466 6.4485 50.6501 6.407 50.8571 6.15875L51.4229 5.51025C51.5331 5.4 51.5884 5.262 51.6021 5.11025C51.5884 4.94475 51.5056 4.80675 51.3814 4.69625C51.1469 4.48925 50.7606 4.2685 50.2501 4.04775C49.7396 3.827 49.0911 3.71675 48.3324 3.71675C47.8634 3.703 47.4079 3.77175 46.9666 3.90975C46.5941 4.034 46.2354 4.21325 45.9181 4.44775C45.6284 4.6685 45.4076 4.9445 45.2421 5.2755C45.0904 5.59275 45.0076 5.93775 45.0076 6.28275C45.0076 6.93125 45.2009 7.4555 45.5871 7.84175C45.9734 8.228 46.4839 8.49025 47.1186 8.6145L48.3604 8.8905C48.6224 8.93175 48.8984 9.0145 49.1469 9.13875C49.2849 9.194 49.3676 9.33175 49.3676 9.48375C49.3676 9.62175 49.2986 9.74575 49.1469 9.85625C48.9951 9.96675 48.7466 10.0357 48.4156 10.0357C48.0846 10.0357 47.7396 9.96675 47.4361 9.815C47.1464 9.677 46.8844 9.49775 46.6359 9.29075C46.5256 9.208 46.4151 9.139 46.2771 9.08375C46.1391 9.0425 45.9599 9.08375 45.7804 9.2355L45.1044 9.746C44.9114 9.884 44.8146 10.1185 44.8699 10.3393C44.9111 10.5738 45.0906 10.7945 45.4356 11.0568C46.2911 11.6363 47.3121 11.9398 48.3466 11.912C48.8294 11.912 49.3124 11.857 49.7676 11.719C50.1679 11.5948 50.5404 11.4155 50.8714 11.1672C51.1749 10.9465 51.4231 10.6567 51.5889 10.3118C51.7544 9.98075 51.8371 9.622 51.8371 9.24925C51.8509 8.91825 51.7819 8.587 51.6441 8.2835C51.5061 8.06275 51.3266 7.828 51.1059 7.635L51.1051 7.6345ZM57.9209 9.52475C57.8519 9.4005 57.7276 9.31775 57.5759 9.29025C57.4379 9.29025 57.2861 9.33175 57.1759 9.4145C56.9829 9.53875 56.7619 9.6075 56.5411 9.6215C56.4721 9.6215 56.3894 9.60775 56.3204 9.59375C56.2376 9.58 56.1686 9.53875 56.1134 9.4835C56.0444 9.4145 55.9891 9.33175 55.9479 9.249C55.8926 9.111 55.8651 8.973 55.8789 8.835V6.00675H57.8931C58.0174 6.00675 58.1276 5.9515 58.2104 5.86875C58.2931 5.786 58.3484 5.68925 58.3484 5.565V4.36475C58.3484 4.2405 58.3071 4.13025 58.2104 4.06125C58.1276 3.9785 58.0174 3.937 57.9069 3.937H55.8786V2.0055C55.8786 1.89525 55.8374 1.771 55.7546 1.702C55.6719 1.633 55.5751 1.5915 55.4649 1.57775H53.8921C53.7819 1.57775 53.6714 1.61925 53.5886 1.702C53.5059 1.78475 53.4506 1.89525 53.4506 2.0055V3.937H52.5539C52.4436 3.937 52.3331 3.9785 52.2504 4.075C52.1814 4.15775 52.1401 4.268 52.1401 4.3785V5.57875C52.1401 5.68925 52.1814 5.7995 52.2504 5.8825C52.3194 5.979 52.4296 6.0205 52.5539 6.0205H53.4506V9.387C53.4369 9.787 53.5196 10.1873 53.6851 10.546C53.8369 10.8495 54.0301 11.1118 54.2921 11.3325C54.5404 11.5395 54.8301 11.6912 55.1474 11.774C55.4649 11.8705 55.7959 11.9258 56.1271 11.9258C56.5549 11.9258 56.9964 11.8568 57.4104 11.7188C57.7966 11.5945 58.1416 11.3738 58.4176 11.084C58.5969 10.9045 58.6106 10.615 58.4729 10.408L57.9211 9.525L57.9209 9.52475ZM66.4474 3.937H64.8884C64.7781 3.937 64.6814 3.9785 64.5986 4.06125C64.5159 4.144 64.4744 4.25425 64.4744 4.3785V4.5715C64.2814 4.337 64.0466 4.1575 63.7709 4.0335C63.3431 3.8265 62.8741 3.72975 62.4049 3.72975C61.3976 3.72975 60.4456 4.13 59.7284 4.8335C59.3559 5.206 59.0661 5.6475 58.8729 6.13025C58.6521 6.66825 58.5419 7.24775 58.5556 7.82725C58.5419 8.40675 58.6521 8.98625 58.8729 9.538C59.0659 10.0208 59.3696 10.4625 59.7284 10.835C60.4321 11.5525 61.3839 11.9525 62.3911 11.9525C62.8601 11.9663 63.3294 11.8558 63.7569 11.6628C64.0329 11.5248 64.2811 11.3455 64.4744 11.1248V11.3318C64.4744 11.442 64.5159 11.5525 64.5986 11.6215C64.6814 11.7043 64.7781 11.7455 64.8884 11.7455H66.4474C66.6819 11.7455 66.8614 11.5663 66.8614 11.3315V4.39175C66.8614 4.28125 66.8199 4.171 66.7511 4.088C66.6821 3.9915 66.5716 3.93625 66.4474 3.93625V3.937ZM64.3504 8.5865C64.2676 8.80725 64.1434 9.0005 63.9779 9.17975C63.8124 9.34525 63.6329 9.48325 63.4261 9.57975C63.2054 9.67625 62.9709 9.7315 62.7224 9.7315C62.4741 9.7315 62.2534 9.67625 62.0326 9.57975C61.8256 9.48325 61.6326 9.34525 61.4669 9.17975C61.3014 9.014 61.1771 8.80725 61.1081 8.5865C60.9426 8.1175 60.9426 7.60675 61.1081 7.13775C61.1909 6.917 61.3151 6.72375 61.4669 6.55825C61.6324 6.39275 61.8256 6.25475 62.0326 6.15825C62.2534 6.0615 62.4879 6.0065 62.7224 6.0065C62.9571 6.0065 63.1914 6.04775 63.4261 6.15825C63.6331 6.25475 63.8124 6.379 63.9779 6.5445C64.1434 6.71 64.2676 6.90325 64.3504 7.124C64.5296 7.57925 64.5296 8.1175 64.3504 8.5865ZM75.0016 9.42825L74.1049 8.7385C73.9394 8.6005 73.7739 8.559 73.6359 8.61425C73.5119 8.6695 73.4014 8.75225 73.3049 8.84875C73.1119 9.08325 72.8771 9.29025 72.6289 9.4695C72.3529 9.62125 72.0631 9.704 71.7596 9.6765C71.4009 9.6765 71.0699 9.58 70.7799 9.373C70.4901 9.166 70.2694 8.89025 70.1591 8.54525C70.0764 8.31075 70.0351 8.07625 70.0351 7.84175C70.0351 7.59325 70.0764 7.359 70.1591 7.1105C70.2419 6.88975 70.3524 6.6965 70.5179 6.531C70.6834 6.3655 70.8629 6.2275 71.0696 6.14475C71.2904 6.04825 71.5249 5.993 71.7731 5.993C72.0766 5.97925 72.3801 6.062 72.6424 6.21375C72.9044 6.37925 73.1251 6.58625 73.3184 6.8345C73.4011 6.931 73.5114 7.014 73.6356 7.069C73.7736 7.12425 73.9391 7.08275 74.1046 6.94475L75.0014 6.26875C75.1116 6.19975 75.1946 6.08925 75.2359 5.96525C75.2911 5.82725 75.2771 5.6755 75.1946 5.55125C74.8496 5.01325 74.3806 4.5715 73.8149 4.25425C73.2216 3.92325 72.5179 3.74375 71.7316 3.74375C71.1799 3.74375 70.6279 3.854 70.1036 4.061C69.6069 4.268 69.1654 4.55775 68.7929 4.93C68.4204 5.3025 68.1169 5.744 67.9099 6.24075C67.4821 7.2755 67.4821 8.4345 67.9099 9.46925C68.1169 9.952 68.4066 10.4075 68.7929 10.7662C69.5794 11.5387 70.6279 11.9528 71.7316 11.9528C72.5181 11.9528 73.2216 11.7732 73.8149 11.4422C74.3806 11.125 74.8634 10.6835 75.2084 10.1315C75.2774 10.0073 75.2911 9.8555 75.2496 9.73125C75.1946 9.621 75.1116 9.5105 75.0014 9.42775L75.0016 9.42825ZM83.3074 11.0425L80.8376 7.42775L82.9486 4.64075C83.0451 4.5165 83.0866 4.33725 83.0314 4.1855C82.9901 4.07525 82.8934 3.96475 82.6314 3.96475H80.9619C80.8651 3.96475 80.7686 3.99225 80.6859 4.03375C80.5756 4.08875 80.4929 4.17175 80.4376 4.26825L78.7544 6.6275H78.3544V1.0535C78.3544 0.943001 78.3129 0.832751 78.2301 0.749751C78.1474 0.667001 78.0506 0.625751 77.9404 0.625751H76.3814C76.2709 0.625751 76.1606 0.667251 76.0776 0.750001C75.9949 0.832751 75.9536 0.929251 75.9536 1.0535V11.3323C75.9536 11.4563 75.9949 11.553 76.0776 11.6357C76.1604 11.7185 76.2709 11.7597 76.3814 11.7597H77.9404C78.0506 11.7597 78.1611 11.7185 78.2301 11.6357C78.3129 11.553 78.3544 11.4425 78.3544 11.3323V8.61425H78.7959L80.6309 11.4287C80.7411 11.6357 80.9481 11.7597 81.1689 11.7597H82.9211C83.1831 11.7597 83.2936 11.6358 83.3489 11.5253C83.4179 11.346 83.4039 11.1665 83.3074 11.0425ZM44.4276 3.951H42.6754C42.5374 3.951 42.4131 3.99225 42.3166 4.089C42.2339 4.17175 42.1786 4.2685 42.1511 4.37875L40.8544 9.18025H40.5369L39.1571 4.37875C39.1296 4.28225 39.0881 4.18575 39.0191 4.089C38.9364 3.9925 38.8259 3.93725 38.7019 3.93725H36.9221C36.6876 3.93725 36.5496 4.00625 36.4806 4.17175C36.4394 4.30975 36.4394 4.4615 36.4806 4.5995L38.6881 11.36C38.7294 11.4567 38.7709 11.567 38.8536 11.636C38.9364 11.7187 39.0606 11.7602 39.1846 11.7602H40.1229L40.0401 11.981L39.8331 12.6018C39.7641 12.795 39.6536 12.9605 39.4881 13.0845C39.3364 13.1947 39.1571 13.264 38.9639 13.25C38.7984 13.25 38.6466 13.2087 38.4949 13.1535C38.3431 13.0845 38.2051 13.0017 38.0809 12.9052C37.9706 12.8225 37.8326 12.781 37.6809 12.781H37.6671C37.5016 12.7948 37.3499 12.8775 37.2669 13.0292L36.7151 13.8433C36.4944 14.202 36.6184 14.4228 36.7564 14.5468C37.0599 14.8228 37.4049 15.0295 37.7911 15.1537C38.2189 15.3055 38.6604 15.3745 39.1019 15.3745C39.9021 15.3745 40.5644 15.1538 41.0749 14.726C41.5991 14.257 41.9994 13.6497 42.1924 12.96L44.7586 4.599C44.8139 4.44725 44.8276 4.2955 44.7724 4.1575C44.7586 4.06075 44.6621 3.93675 44.4274 3.9505L44.4276 3.951Z" fill="black"/>
</svg>
