<svg width="30" height="30" viewBox="0 0 30 30" fill="none" xmlns="http://www.w3.org/2000/svg">
<g clip-path="url(#clip0_4869_321)">
<path d="M17.5 22.4998H12.5C11.1213 22.4998 10 21.3785 10 19.9998V14.9998C10 13.621 11.1213 12.4998 12.5 12.4998H17.5C18.8787 12.4998 20 13.621 20 14.9998V19.9998C20 21.3785 18.8787 22.4998 17.5 22.4998ZM12.5 14.9998V19.9998H17.5025L17.5 14.9998H12.5ZM23.75 29.9998H6.25C2.80375 29.9998 0 27.196 0 23.7498V12.1548C0 10.0735 1.03 8.13602 2.755 6.97352L11.5037 1.06852C13.6275 -0.363984 16.3725 -0.363984 18.4963 1.06852L27.2463 6.97352C28.97 8.13602 30 10.0723 30 12.1548V23.7498C30 27.196 27.1963 29.9998 23.75 29.9998ZM15 2.49602C14.27 2.49602 13.54 2.71102 12.9025 3.14227L4.1525 9.04602C3.1175 9.74352 2.5 10.9048 2.5 12.1535V23.7485C2.5 25.816 4.1825 27.4985 6.25 27.4985H23.75C25.8175 27.4985 27.5 25.816 27.5 23.7485V12.1548C27.5 10.906 26.8825 9.74352 25.8488 9.04727L17.0975 3.14227C16.46 2.71102 15.73 2.49602 15 2.49602Z" fill="#789FC7"/>
</g>
<defs>
<clipPath id="clip0_4869_321">
<rect width="30" height="30" fill="white"/>
</clipPath>
</defs>
</svg>
