<svg width="30" height="30" viewBox="0 0 30 30" fill="none" xmlns="http://www.w3.org/2000/svg">
<g clip-path="url(#clip0_4869_317)">
<path d="M4.60982 30.0005C4.56982 30.0005 4.53107 30.0005 4.49107 30.0005C3.21357 29.9668 2.03732 29.423 1.17982 28.4705C-0.406434 26.7093 -0.266434 23.7405 1.48482 21.9893L8.81982 14.6555C9.13607 14.338 9.24982 13.8668 9.12107 13.3943C8.67357 11.7468 8.62982 10.0493 8.99357 8.34926C9.87857 4.20551 13.2823 0.919258 17.4648 0.171758C18.7223 -0.0532415 19.9836 -0.0582415 21.2173 0.163008C22.1311 0.324258 22.8411 0.944259 23.1173 1.81926C23.4311 2.81801 23.1136 3.92051 22.2648 4.76801L19.4561 7.53926C18.6336 8.36176 18.5086 9.65176 19.1786 10.4705C19.5636 10.943 20.1061 11.218 20.7061 11.248C21.2961 11.273 21.8761 11.0543 22.2948 10.6368L25.5198 7.44926C26.1936 6.77551 27.1848 6.53051 28.1073 6.82301C29.0111 7.10676 29.6748 7.85801 29.8386 8.78176C30.0573 10.0155 30.0536 11.2793 29.8298 12.5355C29.0798 16.7193 25.7936 20.123 21.6498 21.0068C19.9461 21.3705 18.2486 21.3268 16.6048 20.878C16.1336 20.748 15.6623 20.863 15.3448 21.1793L7.87482 28.648C7.01232 29.5105 5.82857 30.0005 4.60982 30.0005ZM19.5123 2.49176C18.9848 2.49176 18.4448 2.53551 17.9048 2.63176C14.7123 3.20301 12.1123 5.71051 11.4373 8.87051C11.1573 10.1768 11.1898 11.478 11.5323 12.7368C11.8948 14.0643 11.5323 15.4755 10.5873 16.4218L3.25232 23.7555C2.43982 24.568 2.33732 26.018 3.03857 26.7968C3.43232 27.2343 3.97232 27.4843 4.55732 27.4993C5.13357 27.523 5.69357 27.2955 6.10857 26.8818L13.5773 19.413C14.5211 18.4693 15.9336 18.1043 17.2623 18.4668C18.5173 18.8093 19.8186 18.8418 21.1286 18.5618C24.2886 17.888 26.7961 15.2893 27.3686 12.0943C27.5411 11.1293 27.5436 10.1605 27.3761 9.21801V9.20926L24.0573 12.408C23.1461 13.3193 21.8773 13.828 20.5811 13.743C19.2861 13.678 18.0698 13.0618 17.2448 12.0518C15.7711 10.253 15.9686 7.49051 17.6961 5.76426L20.5048 2.99301C20.7286 2.76801 20.7436 2.60051 20.7348 2.56676C20.3411 2.51801 19.9311 2.48926 19.5148 2.48926L19.5123 2.49176Z" fill="#789FC7"/>
</g>
<defs>
<clipPath id="clip0_4869_317">
<rect width="30" height="30" fill="white"/>
</clipPath>
</defs>
</svg>
