<svg width="15" height="15" viewBox="0 0 15 15" fill="none" xmlns="http://www.w3.org/2000/svg">
<g clip-path="url(#clip0_2353_1212)">
<path d="M11.6131 1.33741L7.6975 0.0317814C7.5693 -0.0109193 7.43071 -0.0109193 7.3025 0.0317814L3.38688 1.33741C2.76432 1.54421 2.22276 1.94194 1.83915 2.4741C1.45555 3.00626 1.2494 3.64577 1.25 4.30178V7.49991C1.25 12.2268 7 14.8374 7.24625 14.9462C7.32614 14.9816 7.41258 15 7.5 15C7.58742 15 7.67386 14.9816 7.75375 14.9462C8 14.8374 13.75 12.2268 13.75 7.49991V4.30178C13.7506 3.64577 13.5445 3.00626 13.1608 2.4741C12.7772 1.94194 12.2357 1.54421 11.6131 1.33741ZM12.5 7.49991C12.5 10.9093 8.55063 13.1455 7.5 13.6805C6.44813 13.1474 2.5 10.918 2.5 7.49991V4.30178C2.50004 3.9082 2.62392 3.52462 2.8541 3.20537C3.08429 2.88612 3.40909 2.6474 3.7825 2.52303L7.5 1.28366L11.2175 2.52303C11.5909 2.6474 11.9157 2.88612 12.1459 3.20537C12.3761 3.52462 12.5 3.9082 12.5 4.30178V7.49991Z" fill="#007DC1"/>
<path d="M9.56274 5.18742L6.94524 7.81242L5.54274 6.34992C5.48645 6.28839 5.41842 6.23873 5.34265 6.20389C5.26688 6.16905 5.1849 6.14973 5.10155 6.14706C5.01819 6.14439 4.93515 6.15843 4.8573 6.18835C4.77946 6.21827 4.70839 6.26347 4.64828 6.32128C4.58817 6.37909 4.54025 6.44835 4.50732 6.52497C4.47439 6.6016 4.45713 6.68403 4.45656 6.76743C4.45598 6.85082 4.4721 6.93349 4.50397 7.01056C4.53584 7.08763 4.58281 7.15754 4.64211 7.21617L6.08336 8.71618C6.19085 8.83227 6.32076 8.92536 6.46525 8.98982C6.60973 9.05427 6.76579 9.08875 6.92399 9.09117H6.94461C7.09965 9.09169 7.25324 9.0614 7.39647 9.00207C7.53971 8.94273 7.66973 8.85554 7.77899 8.74555L10.449 6.07555C10.5073 6.01736 10.5536 5.94825 10.5852 5.87217C10.6168 5.79609 10.6331 5.71453 10.6332 5.63215C10.6333 5.54977 10.6171 5.46817 10.5857 5.39203C10.5543 5.31588 10.5081 5.24668 10.4499 5.18836C10.3917 5.13005 10.3226 5.08376 10.2465 5.05216C10.1705 5.02055 10.0889 5.00424 10.0065 5.00415C9.92414 5.00406 9.84255 5.0202 9.7664 5.05165C9.69026 5.0831 9.62105 5.12923 9.56274 5.18742Z" fill="#007DC1"/>
</g>
<defs>
<clipPath id="clip0_2353_1212">
<rect width="15" height="15" fill="white"/>
</clipPath>
</defs>
</svg>
