<svg width="25" height="24" viewBox="0 0 25 24" fill="none" xmlns="http://www.w3.org/2000/svg">
<mask id="path-1-outside-1_1257_196" maskUnits="userSpaceOnUse" x="3.69995" y="4" width="17" height="17" fill="black">
<rect fill="white" x="3.69995" y="4" width="17" height="17"/>
<path d="M14.2857 7.41421L7.09167 14.6083C6.89701 14.8029 6.79969 14.9003 6.73272 15.0186C6.66574 15.1368 6.63236 15.2704 6.56559 15.5374L5.90206 18.1915C5.81181 18.5526 5.76668 18.7331 5.86677 18.8332C5.96686 18.9333 6.14737 18.8881 6.5084 18.7979L6.5084 18.7979L9.16252 18.1344C9.42958 18.0676 9.56311 18.0342 9.6814 17.9672C9.79969 17.9003 9.89701 17.8029 10.0917 17.6083L17.2857 10.4142L17.2857 10.4142C17.9524 9.74755 18.2857 9.41421 18.2857 9C18.2857 8.58579 17.9524 8.25245 17.2857 7.58579L17.1142 7.41421C16.4475 6.74755 16.1142 6.41421 15.7 6.41421C15.2857 6.41421 14.9524 6.74755 14.2857 7.41421Z"/>
</mask>
<path d="M7.09167 14.6083L8.50588 16.0225L8.50588 16.0225L7.09167 14.6083ZM14.2857 7.41421L12.8715 6L12.8715 6L14.2857 7.41421ZM17.1142 7.41421L15.7 8.82843L15.7 8.82843L17.1142 7.41421ZM17.2857 7.58579L18.7 6.17157L18.6999 6.17157L17.2857 7.58579ZM17.2857 10.4142L18.7 11.8284L17.2857 10.4142ZM10.0917 17.6083L8.67745 16.1941L8.67745 16.1941L10.0917 17.6083ZM6.56559 15.5374L8.50588 16.0225L8.50588 16.0225L6.56559 15.5374ZM5.90206 18.1915L3.96178 17.7065H3.96178L5.90206 18.1915ZM6.5084 18.7979L6.02333 16.8576L5.9362 16.8794L5.85136 16.9089L6.5084 18.7979ZM9.16252 18.1344L8.67746 16.1941L8.67745 16.1941L9.16252 18.1344ZM5.86677 18.8332L7.28098 17.419L7.28098 17.419L5.86677 18.8332ZM6.5084 18.7979L6.99346 20.7382L7.0806 20.7164L7.16544 20.6869L6.5084 18.7979ZM9.6814 17.9672L8.69601 16.2268L8.696 16.2268L9.6814 17.9672ZM17.2857 10.4142L18.7 11.8284L18.7 11.8284L17.2857 10.4142ZM6.73272 15.0186L4.99232 14.0332L4.99231 14.0332L6.73272 15.0186ZM8.50588 16.0225L15.7 8.82843L12.8715 6L5.67745 13.1941L8.50588 16.0225ZM15.7 8.82843L15.8715 9L18.6999 6.17157L18.5284 6L15.7 8.82843ZM15.8715 9L8.67745 16.1941L11.5059 19.0225L18.7 11.8284L15.8715 9ZM4.62531 15.0524L3.96178 17.7065L7.84235 18.6766L8.50588 16.0225L4.62531 15.0524ZM6.99347 20.7382L9.64759 20.0746L8.67745 16.1941L6.02333 16.8576L6.99347 20.7382ZM3.96178 17.7065C3.93296 17.8218 3.8505 18.1296 3.82254 18.4155C3.79215 18.7261 3.76504 19.5599 4.45255 20.2474L7.28098 17.419C7.54666 17.6847 7.69909 18.0005 7.76639 18.2928C7.82508 18.5478 7.8096 18.7429 7.80353 18.8049C7.79694 18.8724 7.78787 18.904 7.79696 18.8631C7.80532 18.8253 7.81783 18.7747 7.84235 18.6766L3.96178 17.7065ZM5.85136 16.9089L5.85135 16.9089L7.16544 20.6869L7.16544 20.6869L5.85136 16.9089ZM6.02333 16.8576C5.92526 16.8821 5.87462 16.8946 5.83689 16.903C5.7959 16.9121 5.82757 16.903 5.89502 16.8964C5.95707 16.8903 6.15218 16.8749 6.40712 16.9336C6.6995 17.0009 7.0153 17.1533 7.28098 17.419L4.45255 20.2474C5.14006 20.9349 5.97382 20.9078 6.28444 20.8774C6.57034 20.8494 6.87817 20.767 6.99346 20.7382L6.02333 16.8576ZM8.67745 16.1941C8.65274 16.2188 8.63165 16.2399 8.61209 16.2593C8.59266 16.2787 8.57667 16.2945 8.56288 16.308C8.54912 16.3215 8.53906 16.3312 8.53167 16.3382C8.52807 16.3416 8.5254 16.3441 8.52356 16.3458C8.52171 16.3475 8.52085 16.3483 8.52087 16.3482C8.52089 16.3482 8.52193 16.3473 8.5239 16.3456C8.52587 16.3439 8.52888 16.3413 8.53286 16.338C8.54081 16.3314 8.55287 16.3216 8.56861 16.3098C8.5845 16.2979 8.60357 16.2843 8.62559 16.2699C8.64771 16.2553 8.67126 16.2408 8.69601 16.2268L10.6668 19.7076C11.0759 19.476 11.3863 19.1421 11.5059 19.0225L8.67745 16.1941ZM9.64759 20.0746C9.81164 20.0336 10.2577 19.9393 10.6668 19.7076L8.696 16.2268C8.72074 16.2128 8.74525 16.2001 8.76912 16.1886C8.79287 16.1772 8.81433 16.1678 8.83272 16.1603C8.85093 16.1529 8.86548 16.1475 8.87525 16.1441C8.88012 16.1424 8.88389 16.1412 8.88637 16.1404C8.88885 16.1395 8.89019 16.1391 8.89021 16.1391C8.89023 16.1391 8.88913 16.1395 8.88672 16.1402C8.8843 16.1409 8.88079 16.1419 8.87601 16.1432C8.8662 16.1459 8.85273 16.1496 8.83409 16.1544C8.81543 16.1593 8.79363 16.1649 8.76705 16.1716C8.74029 16.1784 8.71136 16.1856 8.67746 16.1941L9.64759 20.0746ZM15.8715 9C16.0434 9.17192 16.1698 9.29842 16.2738 9.40785C16.3785 9.518 16.4262 9.57518 16.4457 9.60073C16.4644 9.62524 16.4226 9.57638 16.3773 9.46782C16.3254 9.34332 16.2857 9.18102 16.2857 9H20.2857C20.2857 8.17978 19.9282 7.57075 19.6258 7.1744C19.3586 6.82421 18.9933 6.46493 18.7 6.17157L15.8715 9ZM18.7 11.8284L18.7 11.8284L15.8715 8.99999L15.8715 9L18.7 11.8284ZM18.7 11.8284C18.9933 11.5351 19.3586 11.1758 19.6258 10.8256C19.9282 10.4292 20.2857 9.82022 20.2857 9H16.2857C16.2857 8.81898 16.3254 8.65668 16.3773 8.53218C16.4226 8.42362 16.4644 8.37476 16.4457 8.39927C16.4262 8.42482 16.3785 8.482 16.2738 8.59215C16.1698 8.70157 16.0435 8.82807 15.8715 9L18.7 11.8284ZM15.7 8.82843C15.8719 8.6565 15.9984 8.53019 16.1078 8.42615C16.2179 8.32142 16.2751 8.27375 16.3007 8.25426C16.3252 8.23555 16.2763 8.27736 16.1678 8.32264C16.0433 8.37455 15.881 8.41421 15.7 8.41421V4.41421C14.8797 4.41421 14.2707 4.77177 13.8744 5.07417C13.5242 5.34136 13.1649 5.70664 12.8715 6L15.7 8.82843ZM18.5284 6C18.235 5.70665 17.8757 5.34136 17.5255 5.07417C17.1292 4.77177 16.5202 4.41421 15.7 4.41421V8.41421C15.5189 8.41421 15.3566 8.37455 15.2321 8.32264C15.1236 8.27736 15.0747 8.23555 15.0992 8.25426C15.1248 8.27375 15.182 8.32142 15.2921 8.42615C15.4015 8.53019 15.528 8.6565 15.7 8.82843L18.5284 6ZM5.67745 13.1941C5.55788 13.3136 5.22397 13.624 4.99232 14.0332L8.47312 16.0039C8.4591 16.0287 8.44465 16.0522 8.43009 16.0744C8.4156 16.0964 8.40202 16.1155 8.39011 16.1313C8.37832 16.1471 8.36858 16.1591 8.36197 16.1671C8.35866 16.1711 8.35608 16.1741 8.35437 16.1761C8.35266 16.178 8.35173 16.1791 8.35171 16.1791C8.35169 16.1791 8.35247 16.1782 8.35418 16.1764C8.35588 16.1745 8.35837 16.1719 8.36179 16.1683C8.36879 16.1609 8.37847 16.1508 8.39195 16.1371C8.40545 16.1233 8.42127 16.1073 8.44061 16.0879C8.46008 16.0683 8.48117 16.0472 8.50588 16.0225L5.67745 13.1941ZM8.50588 16.0225C8.51435 15.9886 8.52159 15.9597 8.52834 15.9329C8.53506 15.9063 8.54063 15.8845 8.54551 15.8659C8.55038 15.8472 8.55402 15.8337 8.55675 15.8239C8.55808 15.8192 8.55909 15.8157 8.55979 15.8132C8.5605 15.8108 8.56084 15.8097 8.56083 15.8097C8.56082 15.8098 8.56041 15.8111 8.5596 15.8136C8.55879 15.8161 8.55753 15.8198 8.55583 15.8247C8.55241 15.8345 8.54708 15.849 8.53965 15.8672C8.53215 15.8856 8.52279 15.9071 8.51136 15.9308C8.49988 15.9547 8.48713 15.9792 8.47312 16.0039L4.99231 14.0332C4.76067 14.4423 4.66632 14.8883 4.62531 15.0524L8.50588 16.0225Z" fill="#414042" mask="url(#path-1-outside-1_1257_196)"/>
<path d="M13.2 7.5L16.2 5.5L19.2 8.5L17.2 11.5L13.2 7.5Z" fill="#414042"/>
</svg>
