<svg width="30" height="30" viewBox="0 0 30 30" fill="none" xmlns="http://www.w3.org/2000/svg">
<path d="M15 22.5L15.7071 23.2071L15 23.9142L14.2929 23.2071L15 22.5ZM23.2071 15.7071L15.7071 23.2071L14.2929 21.7929L21.7929 14.2929L23.2071 15.7071ZM14.2929 23.2071L6.79289 15.7071L8.20711 14.2929L15.7071 21.7929L14.2929 23.2071Z" fill="#414042"/>
<path d="M15 15L15.7071 15.7071L15 16.4142L14.2929 15.7071L15 15ZM23.2071 8.20711L15.7071 15.7071L14.2929 14.2929L21.7929 6.79289L23.2071 8.20711ZM14.2929 15.7071L6.79289 8.20711L8.20711 6.79289L15.7071 14.2929L14.2929 15.7071Z" fill="#414042"/>
</svg>
