<svg width="30" height="30" viewBox="0 0 30 30" fill="none" xmlns="http://www.w3.org/2000/svg">
<path d="M20 10V8.75C20 5.98858 17.7614 3.75 15 3.75V3.75C12.2386 3.75 10 5.98858 10 8.75V10" stroke="white" stroke-width="2" stroke-linecap="round"/>
<path fill-rule="evenodd" clip-rule="evenodd" d="M4.62868 9.62868C3.75 10.5074 3.75 11.9216 3.75 14.75V19.5C3.75 23.2712 3.75 25.1569 4.92157 26.3284C6.09315 27.5 7.97876 27.5 11.75 27.5H18.25C22.0212 27.5 23.9069 27.5 25.0784 26.3284C26.25 25.1569 26.25 23.2712 26.25 19.5V14.75C26.25 11.9216 26.25 10.5074 25.3713 9.62868C24.4926 8.75 23.0784 8.75 20.25 8.75H9.75C6.92157 8.75 5.50736 8.75 4.62868 9.62868ZM15 19.25C15.9665 19.25 16.75 18.4665 16.75 17.5C16.75 16.5335 15.9665 15.75 15 15.75C14.0335 15.75 13.25 16.5335 13.25 17.5C13.25 18.4665 14.0335 19.25 15 19.25ZM18.75 17.5C18.75 19.2248 17.5856 20.6776 16 21.1152V23.75H14V21.1152C12.4144 20.6776 11.25 19.2248 11.25 17.5C11.25 15.4289 12.9289 13.75 15 13.75C17.0711 13.75 18.75 15.4289 18.75 17.5Z" fill="white"/>
</svg>
