<svg width="25" height="24" viewBox="0 0 25 24" fill="none" xmlns="http://www.w3.org/2000/svg">
<g clip-path="url(#clip0_1424_102)">
<path d="M20.2349 3.12202L18.5789 1.46402C18.1156 0.998332 17.5645 0.629158 16.9576 0.377864C16.3506 0.126569 15.6999 -0.00185599 15.0429 2.02654e-05H8.69995C7.37435 0.00160812 6.10351 0.528902 5.16617 1.46624C4.22883 2.40358 3.70154 3.67442 3.69995 5.00002V19C3.70154 20.3256 4.22883 21.5965 5.16617 22.5338C6.10351 23.4711 7.37435 23.9984 8.69995 24H16.6999C18.0255 23.9984 19.2964 23.4711 20.2337 22.5338C21.1711 21.5965 21.6984 20.3256 21.6999 19V6.65702C21.7016 6.0002 21.5729 5.34959 21.3214 4.74281C21.07 4.13604 20.7007 3.58515 20.2349 3.12202ZM18.8209 4.53602C18.9628 4.67734 19.0898 4.83282 19.1999 5.00002H16.6999V2.50002C16.8669 2.61134 17.0226 2.7386 17.1649 2.88002L18.8209 4.53602ZM19.6999 19C19.6999 19.7957 19.3839 20.5587 18.8213 21.1213C18.2587 21.6839 17.4956 22 16.6999 22H8.69995C7.9043 22 7.14124 21.6839 6.57863 21.1213C6.01602 20.5587 5.69995 19.7957 5.69995 19V5.00002C5.69995 4.20437 6.01602 3.44131 6.57863 2.8787C7.14124 2.31609 7.9043 2.00002 8.69995 2.00002H14.6999V5.00002C14.6999 5.53045 14.9107 6.03916 15.2857 6.41423C15.6608 6.7893 16.1695 7.00002 16.6999 7.00002H19.6999V19ZM16.6999 9.00002C16.9652 9.00002 17.2195 9.10537 17.4071 9.29291C17.5946 9.48045 17.6999 9.7348 17.6999 10C17.6999 10.2652 17.5946 10.5196 17.4071 10.7071C17.2195 10.8947 16.9652 11 16.6999 11H8.69995C8.43473 11 8.18038 10.8947 7.99284 10.7071C7.80531 10.5196 7.69995 10.2652 7.69995 10C7.69995 9.7348 7.80531 9.48045 7.99284 9.29291C8.18038 9.10537 8.43473 9.00002 8.69995 9.00002H16.6999ZM17.6999 14C17.6999 14.2652 17.5946 14.5196 17.4071 14.7071C17.2195 14.8947 16.9652 15 16.6999 15H8.69995C8.43473 15 8.18038 14.8947 7.99284 14.7071C7.80531 14.5196 7.69995 14.2652 7.69995 14C7.69995 13.7348 7.80531 13.4804 7.99284 13.2929C8.18038 13.1054 8.43473 13 8.69995 13H16.6999C16.9652 13 17.2195 13.1054 17.4071 13.2929C17.5946 13.4804 17.6999 13.7348 17.6999 14ZM17.5079 17.413C17.6634 17.6269 17.7278 17.8936 17.6872 18.1548C17.6465 18.416 17.504 18.6505 17.2909 18.807C16.2778 19.529 15.0777 19.9432 13.8349 20C13.1088 19.9965 12.4048 19.7501 11.8349 19.3C11.5069 19.075 11.3819 19 11.1349 19C10.4664 19.1035 9.83557 19.3769 9.30295 19.794C9.0917 19.9446 8.83019 20.0072 8.57364 19.9686C8.3171 19.93 8.0856 19.7932 7.92803 19.5871C7.77047 19.381 7.69917 19.1217 7.7292 18.864C7.75922 18.6063 7.88822 18.3704 8.08895 18.206C8.97013 17.5219 10.0282 17.1036 11.1389 17C11.8051 17.0107 12.4491 17.2409 12.9709 17.655C13.2088 17.869 13.5151 17.9913 13.8349 18C14.6526 17.9388 15.4389 17.6594 16.1119 17.191C16.3265 17.0355 16.5941 16.9715 16.8559 17.0131C17.1177 17.0547 17.3522 17.1986 17.5079 17.413Z" fill="#414042"/>
</g>
<defs>
<clipPath id="clip0_1424_102">
<rect width="24" height="24" fill="white" transform="translate(0.699951)"/>
</clipPath>
</defs>
</svg>
