<svg width="34" height="34" viewBox="0 0 34 34" fill="none" xmlns="http://www.w3.org/2000/svg">
<path d="M21.5574 13.2657C21.2262 12.857 20.7472 12.5952 20.2243 12.5371L14.1902 11.8414C13.9277 11.8123 13.6642 11.8882 13.4574 12.0526C13.2506 12.217 13.1173 12.4566 13.0866 12.719C13.0711 12.8501 13.0817 12.983 13.1178 13.1099C13.1539 13.2369 13.2148 13.3555 13.297 13.4588C13.3791 13.5621 13.4809 13.6482 13.5965 13.712C13.7121 13.7758 13.8392 13.816 13.9704 13.8304L18.5869 14.3501L10.7597 20.5739C10.5522 20.739 10.4186 20.9798 10.3886 21.2433C10.3585 21.5068 10.4343 21.7714 10.5994 21.979C10.7645 22.1866 11.0052 22.3201 11.2687 22.3502C11.5322 22.3803 11.7969 22.3044 12.0045 22.1393L19.8317 15.9156L19.3042 20.5383C19.2731 20.8019 19.3481 21.067 19.5125 21.2752C19.6769 21.4835 19.9174 21.618 20.1809 21.649C20.4445 21.68 20.7095 21.6051 20.9178 21.4406C21.1261 21.2762 21.2605 21.0358 21.2916 20.7722L21.9732 14.7366C22.0348 14.2106 21.8853 13.6816 21.5574 13.2657Z" fill="#007DC1"/>
</svg>
