<svg width="12" height="14" viewBox="0 0 12 14" fill="none" xmlns="http://www.w3.org/2000/svg">
<path d="M5.99999 14C6.5261 13.9951 7.02909 13.7832 7.39999 13.41L11.7 9.12C11.8862 8.93264 11.9908 8.67919 11.9908 8.415C11.9908 8.15082 11.8862 7.89736 11.7 7.71C11.607 7.61627 11.4964 7.54188 11.3746 7.49111C11.2527 7.44034 11.122 7.4142 10.99 7.4142C10.858 7.4142 10.7273 7.44034 10.6054 7.49111C10.4836 7.54188 10.373 7.61627 10.28 7.71L6.99999 11L6.99999 1C6.99999 0.734783 6.89463 0.48043 6.7071 0.292893C6.51956 0.105357 6.26521 -2.50273e-07 5.99999 -2.61866e-07C5.73477 -2.73459e-07 5.48042 0.105357 5.29288 0.292893C5.10535 0.48043 4.99999 0.734783 4.99999 1L4.99999 11L1.70999 7.71C1.52301 7.5217 1.26889 7.41538 1.00353 7.41444C0.738163 7.41351 0.483294 7.51802 0.29499 7.705C0.106686 7.89198 0.000370623 8.1461 -0.00056685 8.41147C-0.00150432 8.67683 0.103014 8.9317 0.289991 9.12L4.58999 13.41C4.96334 13.7856 5.47041 13.9978 5.99999 14Z" fill="white"/>
</svg>
