<svg width="15" height="15" viewBox="0 0 15 15" fill="none" xmlns="http://www.w3.org/2000/svg">
<g clip-path="url(#clip0_6879_3259)">
<path d="M7.5 0C3.36437 0 0 3.36437 0 7.5C0 11.6356 3.36437 15 7.5 15C11.6356 15 15 11.6356 15 7.5C15 3.36437 11.6356 0 7.5 0ZM11.375 6.57L8.60875 9.28563C8.11938 9.76562 7.48938 10.005 6.85875 10.005C6.235 10.005 5.61125 9.77 5.12375 9.29937L3.93687 8.1325C3.69062 7.89062 3.6875 7.495 3.92938 7.24875C4.17063 7.00187 4.5675 6.99875 4.81313 7.24125L5.99625 8.40438C6.48125 8.87313 7.24687 8.87062 7.73438 8.39312L10.5 5.67812C10.7456 5.43563 11.14 5.44 11.3838 5.68625C11.6256 5.9325 11.6219 6.32812 11.375 6.57Z" fill="#00CD2D"/>
</g>
<defs>
<clipPath id="clip0_6879_3259">
<rect width="15" height="15" fill="white"/>
</clipPath>
</defs>
</svg>
