<svg width="18" height="18" viewBox="0 0 18 18" fill="none" xmlns="http://www.w3.org/2000/svg">
<g clip-path="url(#clip0_503_210)">
<path d="M18 9.05469C18 13.5464 14.7045 17.2702 10.4025 17.9459V11.6737H12.4942L12.8925 9.07869H10.4025V7.39494C10.4025 6.68469 10.7505 5.99319 11.865 5.99319H12.9967V3.78369C12.9967 3.78369 11.9692 3.60819 10.9875 3.60819C8.93699 3.60819 7.59749 4.85094 7.59749 7.10019V9.07794H5.31824V11.6729H7.59749V17.9452C3.29624 17.2687 -7.62939e-06 13.5457 -7.62939e-06 9.05469C-7.62939e-06 4.08444 4.02974 0.0546875 8.99999 0.0546875C13.9702 0.0546875 18 4.08369 18 9.05469Z" fill="white"/>
</g>
<defs>
<clipPath id="clip0_503_210">
<rect width="18" height="18" fill="white"/>
</clipPath>
</defs>
</svg>
