<svg width="25" height="25" viewBox="0 0 25 25" fill="none" xmlns="http://www.w3.org/2000/svg">
<path d="M16.9792 15.6322C17.2722 15.9251 17.6695 16.0897 18.0839 16.0897C18.4982 16.0897 18.8955 15.9251 19.1885 15.6322L24.1115 10.7103C24.6832 10.1373 25.0044 9.36094 25.0044 8.55147C25.0044 7.742 24.6832 6.96559 24.1115 6.39261L19.1833 1.47074C19.0412 1.3135 18.8685 1.18682 18.6759 1.09842C18.4832 1.01002 18.2746 0.961741 18.0627 0.956527C17.8508 0.951314 17.64 0.989271 17.4432 1.06809C17.2465 1.14691 17.0678 1.26494 16.9181 1.41501C16.7684 1.56507 16.6508 1.74402 16.5724 1.94098C16.4941 2.13794 16.4566 2.34878 16.4623 2.56067C16.468 2.77257 16.5168 2.98108 16.6056 3.17353C16.6945 3.36598 16.8216 3.53834 16.9792 3.68011L20.3458 6.97907H5.54062C4.07175 6.981 2.66359 7.56536 1.62494 8.60402C0.586292 9.64267 0.00192928 11.0508 0 12.5197L0 19.4791C0.00165423 20.9478 0.585818 22.3558 1.62433 23.3943C2.66285 24.4328 4.0709 25.017 5.53958 25.0187H19.4604C19.8748 25.0187 20.2722 24.854 20.5653 24.561C20.8583 24.268 21.0229 23.8706 21.0229 23.4562C21.0229 23.0418 20.8583 22.6443 20.5653 22.3513C20.2722 22.0583 19.8748 21.8937 19.4604 21.8937H5.53958C4.89945 21.8928 4.28577 21.6382 3.83313 21.1855C3.38049 20.7329 3.12583 20.1192 3.125 19.4791V12.5197C3.12555 11.8792 3.38023 11.2651 3.83313 10.8122C4.28603 10.3593 4.90013 10.1046 5.54062 10.1041H20.2896L16.9792 13.4228C16.6862 13.7158 16.5217 14.1132 16.5217 14.5275C16.5217 14.9418 16.6862 15.3392 16.9792 15.6322Z" fill="#007DC1"/>
</svg>
