<svg width="24" height="24" viewBox="0 0 24 24" fill="none" xmlns="http://www.w3.org/2000/svg">
<g clip-path="url(#clip0_2329_1798)">
<path d="M2.75001 13.069C1.96028 13.2836 1.26312 13.7522 0.766083 14.4023C0.269047 15.0525 -0.000244497 15.8481 -0.000244461 16.6665C-0.000244425 17.4849 0.269047 18.2805 0.766084 18.9307C1.26312 19.5808 1.96028 20.0494 2.75001 20.264L2.75001 24L4.75001 24L4.75001 20.264C5.53975 20.0494 6.23691 19.5808 6.73395 18.9307C7.23098 18.2805 7.50027 17.4849 7.50027 16.6665C7.50027 15.8481 7.23098 15.0525 6.73395 14.4023C6.23691 13.7522 5.53975 13.2836 4.75001 13.069L4.75001 -2.0764e-07L2.75001 -1.20218e-07L2.75001 13.069ZM5.50001 16.667C5.50001 17.0131 5.39738 17.3515 5.20509 17.6392C5.01279 17.927 4.73948 18.1513 4.41971 18.2838C4.09994 18.4162 3.74807 18.4509 3.40861 18.3834C3.06914 18.3159 2.75732 18.1492 2.51258 17.9044C2.26784 17.6597 2.10116 17.3479 2.03364 17.0084C1.96612 16.6689 2.00077 16.3171 2.13323 15.9973C2.26568 15.6775 2.48998 15.4042 2.77777 15.2119C3.06555 15.0196 3.4039 14.917 3.75001 14.917C4.2139 14.9178 4.65856 15.1024 4.98658 15.4304C5.31459 15.7585 5.49922 16.2031 5.50001 16.667Z" fill="#414042"/>
<path d="M8.25 7.333C8.25293 8.15054 8.5233 8.94467 9.01985 9.59415C9.51639 10.2436 10.2118 10.7128 11 10.93L11 24L13 24L13 10.93C13.7899 10.7157 14.4873 10.2474 14.9846 9.59727C15.4818 8.94717 15.7512 8.15146 15.7512 7.333C15.7512 6.51454 15.4818 5.71883 14.9846 5.06873C14.4873 4.41863 13.7899 3.95028 13 3.736L13 -2.07629e-07L11 -1.20206e-07L11 3.736C10.2118 3.95321 9.51639 4.42236 9.01985 5.07185C8.5233 5.72133 8.25293 6.51546 8.25 7.333ZM13.75 7.333C13.75 7.67912 13.6474 8.01746 13.4551 8.30525C13.2628 8.59303 12.9895 8.81734 12.6697 8.94979C12.3499 9.08224 11.9981 9.1169 11.6586 9.04937C11.3191 8.98185 11.0073 8.81518 10.7626 8.57044C10.5178 8.32569 10.3511 8.01387 10.2836 7.67441C10.2161 7.33494 10.2508 6.98307 10.3832 6.6633C10.5157 6.34353 10.74 6.07022 11.0278 5.87793C11.3155 5.68563 11.6539 5.583 12 5.583C12.464 5.58353 12.9088 5.76807 13.2369 6.09615C13.5649 6.42422 13.7495 6.86903 13.75 7.333Z" fill="#414042"/>
<path d="M16.5 16.667C16.5023 17.4851 16.7723 18.2799 17.2689 18.93C17.7655 19.5801 18.4613 20.0497 19.25 20.267L19.25 24L21.25 24L21.25 20.264C22.0397 20.0494 22.7369 19.5808 23.2339 18.9307C23.731 18.2805 24.0003 17.4849 24.0003 16.6665C24.0003 15.8481 23.731 15.0525 23.2339 14.4023C22.7369 13.7522 22.0397 13.2836 21.25 13.069L21.25 -2.07629e-07L19.25 -1.20206e-07L19.25 13.069C18.4617 13.2863 17.7661 13.7556 17.2695 14.4052C16.773 15.0549 16.5027 15.8493 16.5 16.667ZM22 16.667C22 17.0131 21.8974 17.3515 21.7051 17.6392C21.5128 17.927 21.2395 18.1513 20.9197 18.2838C20.5999 18.4162 20.2481 18.4509 19.9086 18.3834C19.5691 18.3159 19.2573 18.1492 19.0126 17.9044C18.7678 17.6597 18.6012 17.3479 18.5336 17.0084C18.4661 16.6689 18.5008 16.3171 18.6332 15.9973C18.7657 15.6775 18.99 15.4042 19.2778 15.2119C19.5655 15.0196 19.9039 14.917 20.25 14.917C20.7139 14.9178 21.1585 15.1024 21.4866 15.4304C21.8146 15.7585 21.9992 16.2031 22 16.667Z" fill="#414042"/>
</g>
<defs>
<clipPath id="clip0_2329_1798">
<rect width="24" height="24" fill="white" transform="translate(0 24) rotate(-90)"/>
</clipPath>
</defs>
</svg>
