<svg width="150" height="36" viewBox="0 0 150 36" fill="none" xmlns="http://www.w3.org/2000/svg">
<g clip-path="url(#clip0_3304_1570)">
<path d="M20.5412 19.2175C20.5296 19.2306 20.518 19.2439 20.508 19.2555C20.4948 19.2472 20.4832 19.239 20.47 19.2306C20.1966 19.0567 19.9166 18.8762 19.6481 18.7038C19.108 18.3542 18.548 17.993 17.983 17.6533C17.9434 17.6302 17.9052 17.6053 17.8654 17.5821C17.6733 17.4662 17.4811 17.3486 17.2889 17.2326C17.0967 17.1166 16.9044 17.0006 16.7123 16.883C16.3643 16.6726 16.0181 16.4621 15.6702 16.2517C12.3135 14.2221 8.84577 12.1213 5.40956 10.09C3.99298 9.25336 2.47202 9.23679 1.13001 10.047C0.7009 10.3054 0.329775 10.607 0.0149802 10.9482C0.0133233 10.5954 0.0116666 10.2441 0.0100098 9.89786C0.016637 9.31466 0.0265779 8.73147 0.0414891 8.15158C0.0713117 6.96862 0.677704 5.96128 1.748 5.31512C2.96245 4.58281 4.07748 4.93737 4.79819 5.36317C8.22778 7.38945 11.6922 9.48697 15.0439 11.5166C15.816 11.9838 16.588 12.4511 17.3601 12.9182C17.9086 13.2495 18.4619 13.6058 18.9954 13.9504C19.2671 14.1261 19.5472 14.3066 19.8254 14.4822C19.9398 14.5534 20.0475 14.633 20.1486 14.7192C20.3026 14.8484 20.4435 14.9909 20.5693 15.1466C20.6969 15.3024 20.8079 15.4714 20.904 15.6487C21.0747 15.9684 21.1923 16.3196 21.2487 16.6907C21.3878 17.607 21.1293 18.5282 20.5412 19.2175Z" fill="#5466F9"/>
<path d="M0.0390104 24.3451C0.0390104 24.3319 0.0390104 24.317 0.0390104 24.3037V24.3451C0.0390104 24.7046 0.0390104 25.0641 0.0390104 25.4237V26.4145C0.0373535 26.3697 0.0373535 26.3234 0.0373535 26.2786C0.0390104 25.6358 0.0390104 24.9896 0.0390104 24.3451Z" fill="#5466F9"/>
<path d="M0.0415938 21.5253C0.0415938 22.14 0.0415938 22.758 0.0415938 23.3776C0.0415938 23.6361 0.0415938 23.8962 0.0415938 24.1547V22.3852H0.0183985C0.0167417 21.6993 0.0134281 21.0101 0.0101145 20.339C0.00183042 18.717 -0.00645364 17.0536 0.0134281 15.3985C0.0200554 14.9295 0.0283394 14.4624 0.0399371 13.9968C0.0399371 14.2552 0.0399371 14.5137 0.0399371 14.7722C0.0399371 16.0644 0.0399371 17.3816 0.0399371 18.7022V19.6664C0.0415938 20.2811 0.0415938 20.9024 0.0415938 21.5253Z" fill="#5466F9"/>
<path d="M0.0165809 10.9481C0.0132673 10.9531 0.00829684 10.9581 0.00332642 10.9613C0.00498322 10.6068 0.00829684 10.2523 0.0116105 9.89771C0.0132672 10.2456 0.0149241 10.5969 0.0165809 10.9481Z" fill="#5466F9"/>
<path d="M0.0410401 19.6662V18.7019C0.0410401 18.2098 0.0410401 17.7194 0.0410401 17.2273V16.6292H0.0178448C0.0161879 16.2184 0.0161879 15.8074 0.0128743 15.3999C-0.00700742 17.055 -0.000380171 18.7185 0.00956069 20.3404C0.0128743 21.0115 0.0161879 21.7007 0.0178448 22.3866H0.0393833V24.1561C0.0393833 23.8976 0.0393833 23.6375 0.0393833 23.379C0.0393833 22.7595 0.0393833 22.1414 0.0393833 21.5268C0.0410401 20.9022 0.0410401 20.2809 0.0410401 19.6662Z" fill="#5466F9"/>
<path d="M0.0415938 19.6664C0.0415938 20.2811 0.0415938 20.9007 0.0415938 21.5253C0.0415938 22.14 0.0415938 22.758 0.0415938 23.3776C0.0415938 23.3776 0.0415938 23.3776 0.0415938 23.376V22.3852H0.0183985C0.0167417 21.6993 0.0134281 21.0101 0.0101145 20.339C0.00183042 18.717 -0.00645364 17.0536 0.0134281 15.3985C0.0200554 14.9295 0.0283394 14.4624 0.0399371 13.9968C0.0399371 14.2552 0.0399371 14.5137 0.0399371 14.7722C0.0399371 16.0644 0.0399371 17.3816 0.0399371 18.7022V19.6664H0.0415938Z" fill="#5466F9"/>
<path d="M0.0165809 10.9481C0.0132673 10.9531 0.00829684 10.9581 0.00332642 10.9613C0.00498322 10.6068 0.00829684 10.2523 0.0116105 9.89771C0.0132672 10.2456 0.0149241 10.5969 0.0165809 10.9481Z" fill="#5466F9"/>
<path d="M20.9061 13.7916C20.7686 13.6773 20.6228 13.5712 20.4687 13.4735C20.1953 13.2996 19.9153 13.1189 19.647 12.945C19.1068 12.5953 18.5469 12.2342 17.9818 11.8946C17.2098 11.4273 16.4377 10.9601 15.6673 10.4929C12.3139 8.46329 8.84452 6.36411 5.40996 4.33452C3.99338 3.49617 2.47244 3.48126 1.13041 4.29144C0.699648 4.55155 0.323552 4.85641 0.00875854 5.19937C0.0153858 4.55155 0.0253267 3.90375 0.0418947 3.25925C0.0717173 2.07628 0.67811 1.06894 1.74841 0.422788C2.96285 -0.309521 4.07788 0.0450361 4.7986 0.470836C8.22653 2.49712 11.691 4.59464 15.0426 6.62423C15.8147 7.09145 16.5868 7.55867 17.3605 8.02589C17.9089 8.35725 18.4623 8.71347 18.9958 9.05809C19.2675 9.23371 19.5475 9.41429 19.8259 9.58992C20.5929 10.077 21.1115 10.8805 21.249 11.7985C21.3551 12.496 21.2309 13.1935 20.9061 13.7916Z" fill="#5466F9"/>
<path d="M0.0377265 21.3844C0.0393833 20.5908 0.0393833 19.7938 0.0393833 18.997V18.702C0.0393833 17.3816 0.0393833 16.0644 0.0393833 14.7721C0.0393833 14.5136 0.0393833 14.2552 0.0393833 13.9967C0.0277856 14.4622 0.0195015 14.9295 0.0128743 15.3984C-0.00700741 17.0535 -0.000380171 18.717 0.00956069 20.339C0.0128743 21.0099 0.0161879 21.6992 0.0178448 22.3852H0.0393833V24.1546C0.0393833 23.8961 0.0393833 23.636 0.0393833 23.3775C0.0393833 22.7579 0.0393833 22.1399 0.0393833 21.5253C0.0393833 21.4788 0.0377265 21.4324 0.0377265 21.3844ZM0.0393833 24.3452V24.3037C0.0393833 24.317 0.0393833 24.3303 0.0393833 24.3452ZM0.0112175 9.89941C0.00790388 10.254 0.00459026 10.6085 0.00293345 10.9631C0.00790388 10.9581 0.0112175 10.9548 0.0161879 10.9498C0.0145311 10.5969 0.0128743 10.2457 0.0112175 9.89941Z" fill="#5466F9"/>
<path d="M0.0414279 19.6657V18.7014C0.0414279 17.3809 0.0414279 16.0637 0.0414279 14.7714C0.0414279 14.5129 0.0414279 14.2546 0.0414279 13.9961C0.0298302 14.4616 0.0215462 14.9288 0.014919 15.3977C-0.00496274 17.0528 0.00166451 18.7163 0.0116053 20.3384C0.014919 21.0094 0.0182326 21.6986 0.0198895 22.3845H0.0414279V24.1539C0.0414279 23.8954 0.0414279 23.6353 0.0414279 23.377C0.0414279 22.7573 0.0414279 22.1392 0.0414279 21.5246C0.0414279 20.9016 0.0414279 20.2803 0.0414279 19.6657ZM0.0397711 24.3445C0.0397711 24.9907 0.0381144 25.6351 0.0381144 26.2779C0.0381144 26.3227 0.0397711 26.3691 0.0397711 26.4138V25.4231C0.0414279 25.0636 0.0397711 24.704 0.0397711 24.3445V24.3031C0.0397711 24.3163 0.0397711 24.3296 0.0397711 24.3445Z" fill="#5466F9"/>
<path d="M0.0391935 24.3451C0.0391935 24.9912 0.0375366 25.6358 0.0375366 26.2786C0.0375366 26.3234 0.0391935 26.3697 0.0391935 26.4145V25.4237C0.0408502 25.0641 0.0391935 24.7046 0.0391935 24.3451V24.3037C0.0391935 24.317 0.0391935 24.3302 0.0391935 24.3451Z" fill="#5466F9"/>
<path d="M20.5415 24.9743C20.2979 25.261 20.0262 25.4995 19.7578 25.6636C14.0419 29.1743 9.35143 32.0423 4.99401 34.6899C3.45153 35.6276 1.54619 35.2117 0.558733 33.7239C0.207489 33.1938 0.0368378 32.642 0.0384946 32.034C0.0401514 31.1062 0.0401514 30.1701 0.0401514 29.2373C0.0401514 28.9142 0.0401514 28.5928 0.0401514 28.2714C0.0401514 27.6501 0.0401514 27.0288 0.0401514 26.4141V25.4233C0.0401514 25.0638 0.0401514 24.7042 0.0401514 24.3448V24.2817C0.0401514 24.2403 0.0401514 24.1973 0.0401514 24.1558C0.0401514 23.8974 0.0401514 23.6373 0.0401514 23.3788C0.0401514 22.7591 0.0401514 22.1412 0.0401514 21.5265C0.0401514 20.9018 0.0401514 20.2823 0.0401514 19.6676V18.7032C0.0401514 17.3828 0.0401514 16.0656 0.0401514 14.7733C0.0401514 14.5149 0.0401514 14.2564 0.0401514 13.9979C0.0401514 13.9681 0.0418082 13.9382 0.0418082 13.9101C0.0716308 12.7272 0.678024 11.7199 1.74832 11.0737C2.96276 10.3414 4.0778 10.6959 4.79851 11.1217C8.2281 13.1497 11.6941 15.2471 15.0475 17.2767C15.2182 17.3794 15.3888 17.4839 15.5612 17.5866C15.7534 17.7026 15.9455 17.8202 16.1377 17.9362C16.3299 18.0522 16.5221 18.1698 16.7142 18.2857C16.9297 18.4166 17.145 18.5458 17.3604 18.6767C17.9088 19.0081 18.4622 19.366 18.9958 19.709C19.168 19.8216 19.3453 19.9343 19.5226 20.0486C19.6237 20.1132 19.723 20.1778 19.8241 20.2408C19.9086 20.2955 19.9914 20.3518 20.0694 20.4148C20.2317 20.5406 20.3808 20.6849 20.515 20.8389C20.8994 21.2863 21.1562 21.8429 21.2473 22.4477C21.3882 23.3639 21.1297 24.2835 20.5415 24.9743Z" fill="#5466F9"/>
<path d="M67.4512 27.0226C68.3541 27.4649 69.2289 27.894 70.1535 28.348C69.5835 29.6668 68.7734 30.7239 67.7014 31.5705C65.8027 33.0715 63.6372 33.7824 61.2066 33.8039C58.8391 33.8254 56.6918 33.2174 54.7684 31.8455C52.6476 30.3312 51.2542 28.3115 50.4805 25.8197C50.1043 24.6102 49.9519 23.371 49.9619 22.1449C49.9835 19.3797 50.8135 16.8448 52.5664 14.6544C54.1951 12.6183 56.2313 11.2066 58.8374 10.7808C62.7094 10.1463 66.0446 11.1619 68.606 14.2287C69.5471 15.3569 70.1087 16.7105 70.4881 18.1238C70.8791 19.5818 71.0465 21.0729 70.9835 22.5856C70.9752 22.7861 70.9322 22.9849 70.8974 23.2466C70.6124 23.2749 70.3622 23.3196 70.1121 23.3196C66.9939 23.3246 63.8775 23.3278 60.7593 23.3163C60.3998 23.3146 60.0319 23.2616 59.684 23.1754C58.4878 22.8805 57.8201 21.7373 58.1134 20.3937C59.6659 20.3473 61.2431 20.3804 62.8204 20.3738C64.3993 20.3672 65.9783 20.3721 67.6019 20.3721C67.65 19.774 67.496 19.2819 67.3601 18.7981C66.9011 17.1529 66.0512 15.7678 64.6429 14.7455C63.9322 14.2303 63.1418 13.9188 62.3002 13.7465C60.211 13.3174 58.2542 13.6653 56.5643 14.9908C54.538 16.5797 53.4147 18.6805 53.3551 21.28C53.3252 22.5724 53.3071 23.8647 53.6516 25.1404C54.4717 28.1823 57.3546 30.8116 60.9035 30.7967C62.4228 30.7901 63.8361 30.5118 65.1217 29.6735C65.7414 29.2692 66.26 28.7771 66.6807 28.174C66.926 27.8112 67.1662 27.4467 67.4512 27.0226Z" fill="#41415A"/>
<path d="M127.401 22.6155C127.301 20.6307 127.704 18.7436 128.638 16.9924C130.207 14.0465 132.595 12.0634 135.863 11.3012C140.341 10.2558 144.197 11.4453 147.242 14.8998C148.745 16.603 149.607 18.6509 149.892 20.9339C150.307 24.2376 149.523 27.2248 147.517 29.8541C145.818 32.0792 143.572 33.4593 140.771 33.9581C138.138 34.4253 135.651 34.0973 133.316 32.8199C130.172 31.0985 128.25 28.4525 127.548 24.9335C127.491 24.6551 127.422 24.3751 127.409 24.0918C127.385 23.6014 127.401 23.1076 127.401 22.6155ZM146.583 22.6388C146.596 20.9621 146.197 19.3864 145.343 17.9599C143.695 15.203 141.321 13.7384 138.012 13.9653C135.467 14.141 133.499 15.3106 132.163 17.4264C130.324 20.3375 130.203 23.434 131.612 26.5488C132.571 28.6728 134.151 30.1905 136.442 30.8565C137.417 31.1399 138.413 31.2028 139.434 31.1216C140.658 31.0255 141.779 30.6693 142.774 29.9801C145.334 28.2073 146.51 25.7039 146.583 22.6388Z" fill="#41415A"/>
<path d="M77.0688 33.7125C77.0688 26.2784 77.0688 18.8724 77.0688 11.4732C77.6387 11.2925 79.259 11.266 80.1206 11.4284C80.2895 12.0149 80.1819 12.6362 80.2001 13.2476C80.2184 13.859 80.2035 14.4704 80.2035 15.2491C80.495 14.8712 80.6889 14.6376 80.8612 14.3908C82.0905 12.6296 83.7556 11.4583 85.8631 11.1037C88.1843 10.7127 90.4657 10.8867 92.5136 12.2668C93.9815 13.2543 94.8695 14.6642 95.4362 16.2829C95.8222 17.3863 95.963 18.5411 95.9564 19.7241C95.9315 24.108 95.9464 28.4919 95.9464 32.8758C95.9464 33.131 95.9464 33.3861 95.9464 33.643C95.345 33.9147 94.8645 33.6993 94.4222 33.4474C93.1365 32.7168 92.6643 31.5256 92.6543 30.1172C92.6394 28.0678 92.6511 26.0183 92.6494 23.9688C92.6477 22.645 92.6511 21.3229 92.6394 19.9991C92.6296 18.9206 92.3876 17.8999 91.879 16.939C90.9826 15.2441 89.586 14.3478 87.6839 14.1224C86.7627 14.0131 85.8664 14.0246 84.9949 14.2865C82.4948 15.0419 81.0849 16.8163 80.5034 19.2917C80.3691 19.8649 80.3376 20.4713 80.3343 21.0645C80.3177 24.1262 80.3177 27.1863 80.331 30.2482C80.336 31.4775 79.8787 32.4683 78.9144 33.2188C78.3925 33.6247 77.8077 33.8666 77.0688 33.7125Z" fill="#41415A"/>
<path d="M120.322 25.8001C121.308 26.1382 122.235 26.4546 123.242 26.8009C123.183 27.1008 123.176 27.3575 123.08 27.5763C121.643 30.8501 119.2 33.0155 115.727 33.8505C112.811 34.553 109.948 34.2217 107.312 32.6925C104.26 30.9213 102.587 28.1926 101.982 24.7746C101.586 22.5346 101.748 20.3177 102.592 18.2037C104.005 14.663 106.527 12.2773 110.258 11.303C113.315 10.5045 116.227 10.9501 118.938 12.5689C121.057 13.8347 122.676 15.9703 123.148 18.1275C122.952 18.1954 122.75 18.3097 122.538 18.3329C121.314 18.4638 120.224 18.1738 119.343 17.261C118.771 16.6662 118.239 16.015 117.595 15.508C114.122 12.771 108.56 13.6657 106.267 18.0248C105.601 19.2905 105.185 20.6326 105.171 22.0359C105.14 25.222 106.096 28.0103 108.832 29.9356C109.846 30.6497 110.98 31.0457 112.239 31.1185C113.36 31.1832 114.451 31.1251 115.538 30.822C116.945 30.431 117.937 29.5014 118.755 28.3782C119.271 27.6724 119.655 26.8721 120.099 26.1149C120.152 26.0288 120.217 25.9492 120.322 25.8001Z" fill="#41415A"/>
<path d="M29.816 0.987793C31.8654 1.14188 33.1263 2.522 33.2174 4.65928C33.2273 4.89289 33.2207 5.12651 33.2207 5.35846C33.2207 13.3691 33.2207 21.3815 33.2207 29.3922C33.2207 29.7003 33.2207 30.0101 33.2207 30.4227C33.5703 30.4376 33.8685 30.4607 34.1667 30.4607C38.5557 30.4625 42.9445 30.4625 47.3334 30.4625C47.6366 30.4625 47.9398 30.4625 48.3341 30.4625C48.3589 31.6139 48.3589 32.6561 48.3341 33.7429C42.078 33.7429 35.9362 33.7429 29.806 33.7429C29.5955 33.052 29.6039 1.63892 29.816 0.987793Z" fill="#41415A"/>
</g>
<defs>
<clipPath id="clip0_3304_1570">
<rect width="150" height="35.8696" fill="white"/>
</clipPath>
</defs>
</svg>
