<svg width="30" height="30" viewBox="0 0 30 30" fill="none" xmlns="http://www.w3.org/2000/svg">
<path d="M17.6513 15.0004L29.4509 3.2022C30.1833 2.46975 30.1833 1.28222 29.4509 0.549826C28.7184 -0.182624 27.5309 -0.182624 26.7985 0.549826L15.0002 12.3493L3.20195 0.549826C2.4695 -0.182624 1.28197 -0.182624 0.549582 0.549826C-0.18281 1.28228 -0.182868 2.46981 0.549582 3.2022L12.3491 15.0004L0.549582 26.7987C-0.182868 27.5312 -0.182868 28.7187 0.549582 29.4511C1.28203 30.1835 2.46956 30.1836 3.20195 29.4511L15.0002 17.6516L26.7984 29.4511C27.5309 30.1836 28.7184 30.1836 29.4508 29.4511C30.1833 28.7187 30.1833 27.5311 29.4508 26.7987L17.6513 15.0004Z" fill="white"/>
</svg>
