<svg width="178" height="44" viewBox="0 0 178 44" fill="none" xmlns="http://www.w3.org/2000/svg">
<path fill-rule="evenodd" clip-rule="evenodd" d="M17.7356 5.6665C27.2578 5.6665 34.977 13.3857 34.977 22.9079C34.977 32.43 27.2578 40.1493 17.7356 40.1493C8.21348 40.1493 0.494247 32.43 0.494247 22.9079C0.494247 13.3857 8.21348 5.6665 17.7356 5.6665ZM75.2069 5.6665L56.8019 38.4808C55.9226 40.0485 53.9304 40.6113 52.3522 39.7379C51.8209 39.4438 51.3827 39.0085 51.0867 38.4808L35.3912 10.4973C34.5119 8.92964 35.0785 6.95075 36.6567 6.07733C37.1435 5.80792 37.6915 5.6665 38.2488 5.6665H75.2069Z" fill="#E83800"/>
<path fill-rule="evenodd" clip-rule="evenodd" d="M87.1452 19.8045C85.2049 19.8045 83.71 19.2502 82.6605 18.1416C81.611 17.0331 81.051 15.558 80.9805 13.7164L80.954 12.5631L80.9805 11.4098C81.051 9.56821 81.6199 8.09312 82.687 6.98456C83.7541 5.876 85.2402 5.32173 87.1452 5.32173C89.0501 5.32173 90.5362 5.876 91.6033 6.98456C92.6705 8.09312 93.2393 9.56821 93.3098 11.4098C93.3451 11.8032 93.3628 12.1876 93.3628 12.5631C93.3628 12.9386 93.3451 13.323 93.3098 13.7164C93.2393 15.558 92.6793 17.0331 91.6298 18.1416C90.5803 19.2502 89.0854 19.8045 87.1452 19.8045ZM87.1452 17.793C88.274 17.793 89.1692 17.4309 89.8306 16.7068C90.4921 15.9826 90.8493 14.9411 90.9022 13.5823C90.9198 13.4035 90.9286 13.0637 90.9286 12.5631C90.9286 12.0625 90.9198 11.7227 90.9022 11.5439C90.8493 10.1851 90.4921 9.14357 89.8306 8.41943C89.1692 7.69529 88.274 7.33322 87.1452 7.33322C86.0163 7.33322 85.1211 7.69529 84.4597 8.41943C83.7982 9.14357 83.4411 10.1851 83.3881 11.5439L83.3617 12.5631L83.3881 13.5823C83.4411 14.9411 83.7982 15.9826 84.4597 16.7068C85.1211 17.4309 86.0163 17.793 87.1452 17.793ZM99.1041 24.6321C98.9454 24.6321 98.8131 24.5784 98.7073 24.4712C98.6014 24.3639 98.5485 24.2387 98.5485 24.0957C98.5485 24.042 98.5926 23.8811 98.6808 23.6129L100.744 18.7049L95.6911 6.60908C95.5852 6.39452 95.5323 6.24254 95.5323 6.15314C95.5499 5.99222 95.6117 5.85813 95.7175 5.75085C95.8233 5.64357 95.9468 5.58993 96.0879 5.58993H97.305C97.5872 5.58993 97.7989 5.73296 97.94 6.01904L102.014 15.8888L106.195 6.01904C106.336 5.73296 106.548 5.58993 106.83 5.58993H108.02C108.162 5.58993 108.285 5.64357 108.391 5.75085C108.497 5.85813 108.55 5.98328 108.55 6.12632C108.55 6.25148 108.505 6.4124 108.417 6.60908L100.93 24.203C100.842 24.346 100.749 24.4533 100.652 24.5248C100.555 24.5963 100.427 24.6321 100.268 24.6321H99.1041ZM115.931 19.8045C114.714 19.8045 113.687 19.6033 112.849 19.201C112.011 18.7987 111.389 18.3383 110.984 17.8198C110.578 17.3013 110.375 16.8722 110.375 16.5325C110.375 16.3537 110.437 16.2151 110.56 16.1167C110.684 16.0184 110.816 15.9692 110.957 15.9692H112.068C112.174 15.9692 112.258 15.9871 112.32 16.0229C112.382 16.0586 112.465 16.1391 112.571 16.2643C112.977 16.7649 113.431 17.1583 113.934 17.4443C114.436 17.7304 115.111 17.8735 115.958 17.8735C116.91 17.8735 117.673 17.6947 118.246 17.3371C118.82 16.9795 119.106 16.4609 119.106 15.7815C119.106 15.3345 118.983 14.9769 118.736 14.7087C118.489 14.4405 118.079 14.1991 117.506 13.9846C116.932 13.77 116.081 13.5376 114.952 13.2872C113.418 12.9475 112.333 12.4558 111.698 11.8121C111.063 11.1685 110.746 10.3371 110.746 9.31789C110.746 8.65633 110.94 8.01713 111.328 7.40027C111.716 6.78341 112.293 6.28278 113.061 5.89836C113.828 5.51393 114.741 5.32173 115.799 5.32173C116.91 5.32173 117.858 5.50946 118.643 5.88495C119.428 6.26043 120.019 6.69848 120.416 7.19912C120.813 7.69976 121.011 8.11994 121.011 8.45966C121.011 8.62058 120.954 8.75468 120.839 8.86196C120.725 8.96924 120.588 9.02288 120.429 9.02288H119.424C119.177 9.02288 119 8.92454 118.895 8.72786C118.595 8.38814 118.343 8.12441 118.141 7.93667C117.938 7.74893 117.642 7.58801 117.254 7.45391C116.866 7.31981 116.381 7.25276 115.799 7.25276C114.935 7.25276 114.273 7.43603 113.815 7.80257C113.356 8.16911 113.127 8.65633 113.127 9.26426C113.127 9.63974 113.224 9.9571 113.418 10.2164C113.612 10.4756 113.982 10.717 114.529 10.9405C115.076 11.164 115.887 11.392 116.963 11.6244C118.639 11.982 119.825 12.4916 120.522 13.1531C121.218 13.8147 121.567 14.664 121.567 15.701C121.567 16.4699 121.351 17.1672 120.919 17.793C120.486 18.4188 119.843 18.9105 118.987 19.2681C118.132 19.6257 117.113 19.8045 115.931 19.8045ZM129.954 19.5363C127.22 19.5363 125.853 17.9718 125.853 14.8428V7.65506H123.763C123.586 7.65506 123.445 7.60142 123.34 7.49414C123.234 7.38686 123.181 7.24382 123.181 7.06502V6.20678C123.181 6.02798 123.234 5.88048 123.34 5.76426C123.445 5.64804 123.586 5.58993 123.763 5.58993H125.853V1.111C125.853 0.932198 125.906 0.78469 126.012 0.66847C126.118 0.55225 126.259 0.494141 126.435 0.494141H127.599C127.776 0.494141 127.921 0.55225 128.036 0.66847C128.15 0.78469 128.208 0.932198 128.208 1.111V5.58993H131.489C131.665 5.58993 131.81 5.64804 131.925 5.76426C132.04 5.88048 132.097 6.02798 132.097 6.20678V7.06502C132.097 7.24382 132.04 7.38686 131.925 7.49414C131.81 7.60142 131.665 7.65506 131.489 7.65506H128.208V14.6551C128.208 15.5669 128.353 16.2553 128.644 16.7202C128.935 17.1851 129.434 17.4175 130.139 17.4175H131.753C131.93 17.4175 132.071 17.4756 132.176 17.5918C132.282 17.7081 132.335 17.8556 132.335 18.0344V18.9194C132.335 19.0982 132.282 19.2457 132.176 19.362C132.071 19.4782 131.93 19.5363 131.753 19.5363H129.954ZM140.378 19.8045C138.579 19.8045 137.142 19.2368 136.066 18.1014C134.99 16.966 134.399 15.415 134.293 13.4482L134.267 12.5363L134.293 11.6512C134.399 9.72018 134.99 8.18252 136.066 7.0382C137.142 5.89388 138.579 5.32173 140.378 5.32173C142.319 5.32173 143.822 5.94752 144.889 7.19912C145.957 8.45072 146.49 10.1493 146.49 12.2949V12.7777C146.49 12.9565 146.433 13.104 146.318 13.2202C146.204 13.3364 146.058 13.3945 145.882 13.3945H136.701V13.6359C136.754 14.7981 137.106 15.7904 137.759 16.6129C138.412 17.4354 139.276 17.8466 140.352 17.8466C141.181 17.8466 141.856 17.6812 142.376 17.3505C142.896 17.0197 143.289 16.6755 143.553 16.3179C143.712 16.1033 143.836 15.9737 143.924 15.929C144.012 15.8843 144.162 15.862 144.374 15.862H145.538C145.696 15.862 145.833 15.9067 145.948 15.9961C146.062 16.0855 146.12 16.2017 146.12 16.3447C146.12 16.7381 145.882 17.2119 145.405 17.7662C144.929 18.3205 144.254 18.7987 143.381 19.201C142.508 19.6033 141.507 19.8045 140.378 19.8045ZM144.082 11.5708V11.4903C144.082 10.2387 143.747 9.21956 143.077 8.43284C142.407 7.64612 141.507 7.25276 140.378 7.25276C139.232 7.25276 138.332 7.64612 137.68 8.43284C137.027 9.21956 136.701 10.2387 136.701 11.4903V11.5708H144.082ZM150.327 19.5363C150.15 19.5363 150.005 19.4782 149.89 19.362C149.775 19.2457 149.718 19.0982 149.718 18.9194V6.2336C149.718 6.0548 149.775 5.90283 149.89 5.77767C150.005 5.65251 150.15 5.58993 150.327 5.58993H151.438C151.632 5.58993 151.786 5.64804 151.901 5.76426C152.015 5.88048 152.073 6.03692 152.073 6.2336V7.41368C152.796 6.19784 154.022 5.58993 155.75 5.58993H156.782C156.976 5.58993 157.126 5.64357 157.232 5.75085C157.338 5.85813 157.391 6.0101 157.391 6.20678V7.19912C157.391 7.37792 157.338 7.52543 157.232 7.64165C157.126 7.75787 156.976 7.81598 156.782 7.81598H155.274C154.304 7.81598 153.541 8.10206 152.986 8.67422C152.43 9.24638 152.152 10.0241 152.152 11.0076V18.9194C152.152 19.0982 152.09 19.2457 151.967 19.362C151.843 19.4782 151.694 19.5363 151.517 19.5363H150.327Z" fill="#282828"/>
<path fill-rule="evenodd" clip-rule="evenodd" d="M75.4034 43.3342C74.9434 43.3342 74.6162 43.1147 74.4216 42.6757L69.4863 30.4534C69.4686 30.4008 69.4598 30.313 69.4598 30.19C69.4598 30.032 69.5128 29.9003 69.619 29.7949C69.7251 29.6896 69.8489 29.6369 69.9904 29.6369H71.211C71.494 29.6369 71.7063 29.7774 71.8478 30.0583L75.934 40.5684L80.0202 30.0583C80.0556 29.953 80.1308 29.8564 80.2458 29.7686C80.3608 29.6808 80.4979 29.6369 80.6571 29.6369H81.8776C82.0191 29.6369 82.143 29.6896 82.2491 29.7949C82.3552 29.9003 82.4083 30.032 82.4083 30.19L82.3552 30.4534L77.4465 42.6757C77.2519 43.1147 76.9246 43.3342 76.4647 43.3342H75.4034ZM90.7134 43.5976C88.9091 43.5976 87.4674 43.0401 86.3884 41.9249C85.3093 40.8098 84.7167 39.2865 84.6106 37.3548L84.5841 36.4592L84.6106 35.5899C84.7167 33.6934 85.3093 32.1832 86.3884 31.0593C87.4674 29.9354 88.9091 29.3735 90.7134 29.3735C92.6592 29.3735 94.1672 29.9881 95.2374 31.2173C96.3076 32.4466 96.8427 34.1148 96.8427 36.2221V36.6963C96.8427 36.8719 96.7852 37.0167 96.6703 37.1309C96.5553 37.245 96.4093 37.3021 96.2325 37.3021H87.0252V37.5392C87.0783 38.6806 87.432 39.6552 88.0866 40.463C88.7411 41.2708 89.6078 41.6747 90.6869 41.6747C91.5183 41.6747 92.1949 41.5123 92.7167 41.1874C93.2385 40.8625 93.6321 40.5245 93.8975 40.1733C94.0567 39.9625 94.1805 39.8352 94.2689 39.7913C94.3574 39.7474 94.5078 39.7255 94.72 39.7255H95.8875C96.0467 39.7255 96.1838 39.7694 96.2988 39.8572C96.4138 39.945 96.4713 40.0591 96.4713 40.1996C96.4713 40.5859 96.2325 41.0513 95.7548 41.5957C95.2772 42.1401 94.6006 42.6098 93.725 43.0049C92.8494 43.4 91.8455 43.5976 90.7134 43.5976ZM94.4282 35.5109V35.4319C94.4282 34.2026 94.0921 33.2017 93.4199 32.429C92.7477 31.6563 91.8455 31.27 90.7134 31.27C89.5636 31.27 88.6615 31.6563 88.0069 32.429C87.3524 33.2017 87.0252 34.2026 87.0252 35.4319V35.5109H94.4282ZM100.69 43.3342C100.513 43.3342 100.367 43.2771 100.252 43.163C100.137 43.0488 100.08 42.904 100.08 42.7283V30.2427C100.08 30.0671 100.137 29.9222 100.252 29.8081C100.367 29.6939 100.513 29.6369 100.69 29.6369H101.831C102.026 29.6369 102.176 29.6896 102.282 29.7949C102.388 29.9003 102.441 30.0495 102.441 30.2427V31.4017C102.972 30.752 103.587 30.2515 104.285 29.9003C104.984 29.5491 105.855 29.3735 106.899 29.3735C108.597 29.3735 109.915 29.9134 110.853 30.9934C111.79 32.0734 112.259 33.5002 112.259 35.2738V42.7283C112.259 42.904 112.201 43.0488 112.086 43.163C111.971 43.2771 111.826 43.3342 111.649 43.3342H110.428C110.251 43.3342 110.105 43.2771 109.99 43.163C109.875 43.0488 109.818 42.904 109.818 42.7283V35.4319C109.818 34.1675 109.508 33.1841 108.889 32.4817C108.27 31.7793 107.386 31.4281 106.236 31.4281C105.104 31.4281 104.201 31.7837 103.529 32.4949C102.857 33.2061 102.521 34.1851 102.521 35.4319V42.7283C102.521 42.904 102.463 43.0488 102.349 43.163C102.234 43.2771 102.088 43.3342 101.911 43.3342H100.69ZM121.413 43.3342C118.671 43.3342 117.3 41.7976 117.3 38.7245V31.6651H115.204C115.027 31.6651 114.886 31.6124 114.78 31.5071C114.674 31.4017 114.62 31.2612 114.62 31.0856V30.2427C114.62 30.0671 114.674 29.9222 114.78 29.8081C114.886 29.6939 115.027 29.6369 115.204 29.6369H117.3V25.2379C117.3 25.0623 117.353 24.9174 117.46 24.8033C117.566 24.6892 117.707 24.6321 117.884 24.6321H119.052C119.228 24.6321 119.374 24.6892 119.489 24.8033C119.604 24.9174 119.662 25.0623 119.662 25.2379V29.6369H122.952C123.129 29.6369 123.275 29.6939 123.39 29.8081C123.505 29.9222 123.562 30.0671 123.562 30.2427V31.0856C123.562 31.2612 123.505 31.4017 123.39 31.5071C123.275 31.6124 123.129 31.6651 122.952 31.6651H119.662V38.5401C119.662 39.4357 119.808 40.1118 120.1 40.5684C120.392 41.025 120.891 41.2532 121.599 41.2532H123.217C123.394 41.2532 123.536 41.3103 123.642 41.4245C123.748 41.5386 123.801 41.6835 123.801 41.8591V42.7283C123.801 42.904 123.748 43.0488 123.642 43.163C123.536 43.2771 123.394 43.3342 123.217 43.3342H121.413ZM131.549 43.5976C129.869 43.5976 128.568 43.0576 127.649 41.9776C126.729 40.8976 126.269 39.4621 126.269 37.6709V30.2427C126.269 30.0671 126.326 29.9222 126.441 29.8081C126.556 29.6939 126.702 29.6369 126.879 29.6369H128.1C128.277 29.6369 128.422 29.6939 128.537 29.8081C128.652 29.9222 128.71 30.0671 128.71 30.2427V37.5392C128.71 40.2084 129.877 41.543 132.212 41.543C133.345 41.543 134.242 41.1874 134.906 40.4762C135.569 39.765 135.901 38.786 135.901 37.5392V30.2427C135.901 30.0671 135.958 29.9222 136.073 29.8081C136.188 29.6939 136.334 29.6369 136.511 29.6369H137.731C137.908 29.6369 138.054 29.6939 138.169 29.8081C138.284 29.9222 138.342 30.0671 138.342 30.2427V42.7283C138.342 42.904 138.284 43.0488 138.169 43.163C138.054 43.2771 137.908 43.3342 137.731 43.3342H136.59C136.414 43.3342 136.268 43.2771 136.153 43.163C136.038 43.0488 135.98 42.904 135.98 42.7283V41.543C135.467 42.2279 134.866 42.7415 134.176 43.0839C133.486 43.4264 132.61 43.5976 131.549 43.5976ZM142.932 43.3342C142.755 43.3342 142.609 43.2771 142.494 43.163C142.379 43.0488 142.322 42.904 142.322 42.7283V30.2691C142.322 30.0934 142.379 29.9442 142.494 29.8213C142.609 29.6983 142.755 29.6369 142.932 29.6369H144.047C144.241 29.6369 144.396 29.6939 144.511 29.8081C144.626 29.9222 144.683 30.0759 144.683 30.2691V31.4281C145.409 30.2339 146.638 29.6369 148.372 29.6369H149.406C149.601 29.6369 149.751 29.6896 149.857 29.7949C149.964 29.9003 150.017 30.0495 150.017 30.2427V31.2173C150.017 31.3929 149.964 31.5378 149.857 31.652C149.751 31.7661 149.601 31.8232 149.406 31.8232H147.894C146.921 31.8232 146.156 32.1041 145.599 32.6661C145.042 33.228 144.763 33.9919 144.763 34.9578V42.7283C144.763 42.904 144.701 43.0488 144.577 43.163C144.453 43.2771 144.303 43.3342 144.126 43.3342H142.932ZM157.765 43.5976C155.96 43.5976 154.519 43.0401 153.44 41.9249C152.36 40.8098 151.768 39.2865 151.662 37.3548L151.635 36.4592L151.662 35.5899C151.768 33.6934 152.36 32.1832 153.44 31.0593C154.519 29.9354 155.96 29.3735 157.765 29.3735C159.71 29.3735 161.218 29.9881 162.289 31.2173C163.359 32.4466 163.894 34.1148 163.894 36.2221V36.6963C163.894 36.8719 163.836 37.0167 163.721 37.1309C163.606 37.245 163.46 37.3021 163.284 37.3021H154.076V37.5392C154.129 38.6806 154.483 39.6552 155.138 40.463C155.792 41.2708 156.659 41.6747 157.738 41.6747C158.569 41.6747 159.246 41.5123 159.768 41.1874C160.29 40.8625 160.683 40.5245 160.949 40.1733C161.108 39.9625 161.232 39.8352 161.32 39.7913C161.409 39.7474 161.559 39.7255 161.771 39.7255H162.939C163.098 39.7255 163.235 39.7694 163.35 39.8572C163.465 39.945 163.522 40.0591 163.522 40.1996C163.522 40.5859 163.284 41.0513 162.806 41.5957C162.328 42.1401 161.652 42.6098 160.776 43.0049C159.901 43.4 158.897 43.5976 157.765 43.5976ZM161.479 35.5109V35.4319C161.479 34.2026 161.143 33.2017 160.471 32.429C159.799 31.6563 158.897 31.27 157.765 31.27C156.615 31.27 155.713 31.6563 155.058 32.429C154.404 33.2017 154.076 34.2026 154.076 35.4319V35.5109H161.479ZM171.854 43.5976C170.633 43.5976 169.603 43.4 168.763 43.0049C167.923 42.6098 167.299 42.1576 166.892 41.6484C166.485 41.1391 166.282 40.7177 166.282 40.384C166.282 40.2084 166.344 40.0723 166.468 39.9757C166.591 39.8791 166.724 39.8308 166.866 39.8308H167.98C168.086 39.8308 168.17 39.8484 168.232 39.8835C168.294 39.9186 168.378 39.9977 168.484 40.1206C168.891 40.6123 169.347 40.9986 169.851 41.2796C170.355 41.5606 171.031 41.701 171.881 41.701C172.836 41.701 173.601 41.5254 174.176 41.1742C174.751 40.823 175.038 40.3138 175.038 39.6464C175.038 39.2074 174.914 38.8562 174.667 38.5928C174.419 38.3294 174.008 38.0923 173.433 37.8816C172.858 37.6709 172.004 37.4426 170.872 37.1967C169.333 36.8631 168.245 36.3802 167.609 35.748C166.972 35.1158 166.653 34.2992 166.653 33.2983C166.653 32.6485 166.848 32.0207 167.237 31.4149C167.626 30.809 168.206 30.3173 168.975 29.9398C169.745 29.5622 170.66 29.3735 171.721 29.3735C172.836 29.3735 173.787 29.5578 174.574 29.9266C175.361 30.2954 175.954 30.7256 176.352 31.2173C176.75 31.709 176.949 32.1217 176.949 32.4554C176.949 32.6134 176.891 32.7451 176.776 32.8505C176.661 32.9558 176.524 33.0085 176.365 33.0085H175.357C175.109 33.0085 174.932 32.9119 174.826 32.7188C174.525 32.3851 174.273 32.1261 174.07 31.9417C173.866 31.7573 173.57 31.5993 173.181 31.4676C172.792 31.3359 172.305 31.27 171.721 31.27C170.855 31.27 170.191 31.45 169.731 31.81C169.271 32.17 169.041 32.6485 169.041 33.2456C169.041 33.6144 169.139 33.9261 169.333 34.1807C169.528 34.4353 169.899 34.6724 170.448 34.8919C170.996 35.1114 171.81 35.3353 172.889 35.5636C174.569 35.9148 175.759 36.4153 176.458 37.065C177.156 37.7148 177.506 38.5489 177.506 39.5674C177.506 40.3225 177.289 41.0074 176.856 41.622C176.422 42.2367 175.777 42.7196 174.919 43.0708C174.061 43.422 173.039 43.5976 171.854 43.5976Z" fill="#282828"/>
</svg>
