<svg width="20" height="20" viewBox="0 0 20 20" fill="none" xmlns="http://www.w3.org/2000/svg">
<g clip-path="url(#clip0_3895_3048)">
<path d="M15 2.5H5C2.2425 2.5 0 4.7425 0 7.5V15C0 16.3783 1.12167 17.5 2.5 17.5H17.5C18.8783 17.5 20 16.3783 20 15V7.5C20 4.7425 17.7575 2.5 15 2.5ZM1.66667 15V7.5C1.66667 5.66167 3.16167 4.16667 5 4.16667C6.83833 4.16667 8.33333 5.66167 8.33333 7.5V15C8.33333 15.46 7.95917 15.8333 7.5 15.8333H2.5C2.04083 15.8333 1.66667 15.46 1.66667 15ZM18.3333 15C18.3333 15.46 17.96 15.8333 17.5 15.8333H9.85667C9.94917 15.5725 10 15.2925 10 15V7.5C10 6.22083 9.51667 5.05167 8.72333 4.16667H15C16.8383 4.16667 18.3333 5.66167 18.3333 7.5V15ZM16.6667 8.33333V10C16.6667 10.46 16.2942 10.8333 15.8333 10.8333C15.3725 10.8333 15 10.46 15 10V9.16667H12.5C12.0392 9.16667 11.6667 8.79333 11.6667 8.33333C11.6667 7.87333 12.0392 7.5 12.5 7.5H15.8333C16.2942 7.5 16.6667 7.87333 16.6667 8.33333ZM6.66667 8.33333C6.66667 8.79333 6.29333 9.16667 5.83333 9.16667H4.16667C3.70667 9.16667 3.33333 8.79333 3.33333 8.33333C3.33333 7.87333 3.70667 7.5 4.16667 7.5H5.83333C6.29333 7.5 6.66667 7.87333 6.66667 8.33333Z" fill="#007DC1"/>
</g>
<defs>
<clipPath id="clip0_3895_3048">
<rect width="20" height="20" fill="white"/>
</clipPath>
</defs>
</svg>
