<svg width="21" height="20" viewBox="0 0 21 20" fill="none" xmlns="http://www.w3.org/2000/svg">
<path d="M20.615 17.3599L16.5505 13.5981C19.5918 9.83811 18.7625 4.50918 14.6983 1.69559C10.6342 -1.118 4.87405 -0.350827 1.83279 3.40911C-1.20847 7.16905 -0.379214 12.498 3.68496 15.3116C6.94965 17.5717 11.4336 17.5717 14.6983 15.3116L18.7646 19.0734C19.2756 19.5461 20.104 19.5461 20.615 19.0734C21.126 18.6007 21.126 17.8342 20.615 17.3615L20.615 17.3599ZM9.22554 14.5855C5.61349 14.5855 2.68538 11.8766 2.68538 8.53493C2.68538 5.19328 5.61349 2.48436 9.22554 2.48436C12.8376 2.48436 15.7657 5.19328 15.7657 8.53493C15.7619 11.8751 12.836 14.582 9.22554 14.5855Z" fill="white"/>
</svg>
