<svg width="101" height="33" viewBox="0 0 101 33" fill="none" xmlns="http://www.w3.org/2000/svg">
<rect width="101" height="33" rx="5" fill="#007DC1"/>
<path d="M19.256 21.098C18.6027 21.098 18.0147 20.986 17.492 20.762C16.9693 20.5287 16.5587 20.202 16.26 19.782C15.9613 19.362 15.812 18.872 15.812 18.312H17.52C17.5573 18.732 17.7207 19.0773 18.01 19.348C18.3087 19.6187 18.724 19.754 19.256 19.754C19.8067 19.754 20.236 19.6233 20.544 19.362C20.852 19.0913 21.006 18.746 21.006 18.326C21.006 17.9993 20.908 17.7333 20.712 17.528C20.5253 17.3227 20.2873 17.164 19.998 17.052C19.718 16.94 19.326 16.8187 18.822 16.688C18.1873 16.52 17.6693 16.352 17.268 16.184C16.876 16.0067 16.54 15.736 16.26 15.372C15.98 15.008 15.84 14.5227 15.84 13.916C15.84 13.356 15.98 12.866 16.26 12.446C16.54 12.026 16.932 11.704 17.436 11.48C17.94 11.256 18.5233 11.144 19.186 11.144C20.1287 11.144 20.8987 11.382 21.496 11.858C22.1027 12.3247 22.4387 12.9687 22.504 13.79H20.74C20.712 13.4353 20.544 13.132 20.236 12.88C19.928 12.628 19.522 12.502 19.018 12.502C18.5607 12.502 18.1873 12.6187 17.898 12.852C17.6087 13.0853 17.464 13.4213 17.464 13.86C17.464 14.1587 17.5527 14.406 17.73 14.602C17.9167 14.7887 18.15 14.938 18.43 15.05C18.71 15.162 19.0927 15.2833 19.578 15.414C20.222 15.5913 20.7447 15.7687 21.146 15.946C21.5567 16.1233 21.902 16.3987 22.182 16.772C22.4713 17.136 22.616 17.626 22.616 18.242C22.616 18.7367 22.4807 19.2033 22.21 19.642C21.9487 20.0807 21.5613 20.4353 21.048 20.706C20.544 20.9673 19.9467 21.098 19.256 21.098ZM28.4892 13.16C29.0772 13.16 29.5999 13.286 30.0572 13.538C30.5239 13.79 30.8879 14.1633 31.1492 14.658C31.4199 15.1527 31.5552 15.75 31.5552 16.45V21H29.9732V16.688C29.9732 15.9973 29.8006 15.47 29.4552 15.106C29.1099 14.7327 28.6386 14.546 28.0412 14.546C27.4439 14.546 26.9679 14.7327 26.6132 15.106C26.2679 15.47 26.0952 15.9973 26.0952 16.688V21H24.4992V10.64H26.0952V14.182C26.3659 13.8553 26.7066 13.6033 27.1172 13.426C27.5372 13.2487 27.9946 13.16 28.4892 13.16ZM33.059 17.108C33.059 16.3333 33.2177 15.6473 33.535 15.05C33.8617 14.4527 34.3003 13.9907 34.851 13.664C35.411 13.328 36.027 13.16 36.699 13.16C37.3057 13.16 37.833 13.2813 38.281 13.524C38.7383 13.7573 39.1023 14.0513 39.373 14.406V13.286H40.983V21H39.373V19.852C39.1023 20.216 38.7337 20.5193 38.267 20.762C37.8003 21.0047 37.2683 21.126 36.671 21.126C36.0083 21.126 35.4017 20.958 34.851 20.622C34.3003 20.2767 33.8617 19.8007 33.535 19.194C33.2177 18.578 33.059 17.8827 33.059 17.108ZM39.373 17.136C39.373 16.604 39.261 16.142 39.037 15.75C38.8223 15.358 38.5377 15.0593 38.183 14.854C37.8283 14.6487 37.4457 14.546 37.035 14.546C36.6243 14.546 36.2417 14.6487 35.887 14.854C35.5323 15.05 35.243 15.344 35.019 15.736C34.8043 16.1187 34.697 16.576 34.697 17.108C34.697 17.64 34.8043 18.1067 35.019 18.508C35.243 18.9093 35.5323 19.2173 35.887 19.432C36.251 19.6373 36.6337 19.74 37.035 19.74C37.4457 19.74 37.8283 19.6373 38.183 19.432C38.5377 19.2267 38.8223 18.928 39.037 18.536C39.261 18.1347 39.373 17.668 39.373 17.136ZM44.6753 14.406C44.9086 14.014 45.2166 13.7107 45.5993 13.496C45.9913 13.272 46.4533 13.16 46.9853 13.16V14.812H46.5793C45.954 14.812 45.478 14.9707 45.1513 15.288C44.834 15.6053 44.6753 16.156 44.6753 16.94V21H43.0793V13.286H44.6753V14.406ZM55.5223 16.954C55.5223 17.2433 55.5037 17.5047 55.4663 17.738H49.5723C49.619 18.354 49.8477 18.8487 50.2583 19.222C50.669 19.5953 51.173 19.782 51.7703 19.782C52.629 19.782 53.2357 19.4227 53.5903 18.704H55.3123C55.079 19.4133 54.6543 19.9967 54.0383 20.454C53.4317 20.902 52.6757 21.126 51.7703 21.126C51.033 21.126 50.3703 20.9627 49.7823 20.636C49.2037 20.3 48.7463 19.8333 48.4103 19.236C48.0837 18.6293 47.9203 17.9293 47.9203 17.136C47.9203 16.3427 48.079 15.6473 48.3963 15.05C48.723 14.4433 49.1757 13.9767 49.7543 13.65C50.3423 13.3233 51.0143 13.16 51.7703 13.16C52.4983 13.16 53.147 13.3187 53.7163 13.636C54.2857 13.9533 54.729 14.4013 55.0463 14.98C55.3637 15.5493 55.5223 16.2073 55.5223 16.954ZM53.8563 16.45C53.847 15.862 53.637 15.3907 53.2263 15.036C52.8157 14.6813 52.307 14.504 51.7003 14.504C51.1497 14.504 50.6783 14.6813 50.2863 15.036C49.8943 15.3813 49.661 15.8527 49.5863 16.45H53.8563Z" fill="white"/>
<g clip-path="url(#clip0_898_188)">
<path d="M84.266 6.73499C83.9673 6.4326 83.5956 6.21237 83.1868 6.09559C82.7781 5.97881 82.3461 5.96942 81.9327 6.06832L68.5994 8.87666C67.8315 8.98196 67.1083 9.29956 66.5112 9.79367C65.9141 10.2878 65.4668 10.9388 65.2197 11.6734C64.9726 12.408 64.9355 13.197 65.1125 13.9515C65.2896 14.706 65.6738 15.3962 66.2219 15.9442L67.6535 17.375C67.731 17.4525 67.7925 17.5444 67.8344 17.6457C67.8763 17.7469 67.8978 17.8554 67.8977 17.965V20.605C67.8996 20.9762 67.985 21.3422 68.1477 21.6758L68.141 21.6817L68.1627 21.7033C68.4069 22.1943 68.8057 22.5913 69.2977 22.8333L69.3194 22.855L69.3252 22.8483C69.6588 23.011 70.0249 23.0965 70.396 23.0983H73.036C73.2569 23.0982 73.4688 23.1857 73.6252 23.3417L75.056 24.7725C75.4398 25.1605 75.8966 25.4687 76.4 25.6794C76.9035 25.8901 77.4436 25.999 77.9894 26C78.4442 25.9994 78.8959 25.9251 79.3269 25.78C80.0547 25.541 80.7014 25.1033 81.1937 24.5164C81.6861 23.9295 82.0047 23.2167 82.1135 22.4583L84.926 9.09582C85.0301 8.67886 85.024 8.24201 84.9082 7.82813C84.7925 7.41425 84.5712 7.03755 84.266 6.73499ZM68.8335 16.1983L67.401 14.7675C67.0675 14.442 66.8337 14.028 66.7271 13.5743C66.6205 13.1205 66.6456 12.6458 66.7994 12.2058C66.9485 11.7544 67.224 11.3553 67.5934 11.056C67.9627 10.7567 68.4102 10.5698 68.8827 10.5175L82.0835 7.73832L69.5627 20.2608V17.965C69.564 17.6369 69.5002 17.3119 69.375 17.0086C69.2499 16.7054 69.0658 16.43 68.8335 16.1983ZM80.476 22.1733C80.4121 22.6336 80.2211 23.0669 79.9245 23.4247C79.6279 23.7824 79.2374 24.0504 78.797 24.1986C78.3565 24.3468 77.8835 24.3693 77.431 24.2635C76.9785 24.1578 76.5644 23.928 76.2352 23.6L74.8019 22.1667C74.5705 21.934 74.2953 21.7496 73.9922 21.624C73.6891 21.4984 73.3641 21.4342 73.036 21.435H70.7402L83.2627 8.91666L80.476 22.1733Z" fill="white"/>
</g>
<defs>
<clipPath id="clip0_898_188">
<rect width="20" height="20" fill="white" transform="translate(65 6)"/>
</clipPath>
</defs>
</svg>
