<svg width="15" height="15" viewBox="0 0 15 15" fill="none" xmlns="http://www.w3.org/2000/svg">
<g clip-path="url(#clip0_6424_2998)">
<path d="M10.625 11.8751C10.625 13.6001 9.225 15.0001 7.5 15.0001H3.125C1.4 15.0001 0 13.6001 0 11.8751V7.50007C0 5.77507 1.4 4.37507 3.125 4.37507H3.75C4.09375 4.37507 4.375 4.65632 4.375 5.00007C4.375 5.34382 4.09375 5.62507 3.75 5.62507H3.125C2.09375 5.62507 1.25 6.46882 1.25 7.50007V11.8751C1.25 12.9063 2.09375 13.7501 3.125 13.7501H7.5C8.53125 13.7501 9.375 12.9063 9.375 11.8751C9.375 11.5313 9.65625 11.2501 10 11.2501C10.3438 11.2501 10.625 11.5313 10.625 11.8751ZM14.4562 3.68132L11.075 0.187567C10.8375 -0.0624333 10.4375 -0.0686833 10.1937 0.175067C9.95 0.418817 9.9375 0.812567 10.1813 1.05632L13.3938 4.36882H8.125C6.4 4.36882 5 5.76882 5 7.49382V10.6188C5 10.9626 5.28125 11.2438 5.625 11.2438C5.96875 11.2438 6.25 10.9626 6.25 10.6188V7.49382C6.25 6.46257 7.09375 5.61882 8.125 5.61882H13.3875L10.175 8.93132C9.9375 9.18132 9.9375 9.57507 10.1875 9.81257C10.3062 9.93132 10.4688 9.98757 10.625 9.98757C10.7812 9.98757 10.95 9.92507 11.075 9.80007L14.45 6.31882C15.1813 5.58757 15.1812 4.40007 14.4562 3.67507V3.68132Z" fill="#007DC1"/>
</g>
<defs>
<clipPath id="clip0_6424_2998">
<rect width="15" height="15" fill="white"/>
</clipPath>
</defs>
</svg>
