<svg width="185" height="34" viewBox="0 0 185 34" fill="none" xmlns="http://www.w3.org/2000/svg">
<path d="M3.41104 2.06135H9.66871V7.64417H14.1779V12.092H9.66871V21.2638C9.66871 23.1963 10.2822 23.5644 12.3681 23.5644H14.1779V28.1043H10.1902C5.12884 28.1043 3.41104 27.1227 3.41104 22.3681V12.092H0.190186V7.64417H3.41104V2.06135ZM35.4049 21.7239C33.5644 26.5705 29.2699 28.6564 25.1902 28.6564C18.5337 28.6564 13.9632 24.638 13.9632 17.7975C13.9632 11.2331 18.9325 7.09202 24.9448 7.09202C31.7546 7.09202 35.9264 12.2454 35.4969 19.5153H20.3129C20.4969 22.4294 22.7669 23.7485 25.0368 23.7485C27.4295 23.7485 28.9325 22.8896 29.638 21.6932L35.4049 21.7239ZM20.4049 15.7116H29.2699C29.1472 13.135 27.3681 11.8466 24.9755 11.8466C22.7055 11.8466 20.7423 13.0123 20.4049 15.7116ZM57.0307 15.1595H51.2025C50.6503 12.7669 49.1472 11.9386 47.3068 11.9386C45.0675 11.9386 42.8589 13.4724 42.8589 17.8589C42.8589 22.3067 45.0675 23.7791 47.3068 23.7791C49.6074 23.7791 51.0491 22.5828 51.5092 20.6196H57.3374C55.9264 26.6932 51.0184 28.6258 46.908 28.6258C40.1595 28.6258 36.4479 24.3006 36.4479 17.7669C36.4479 11.2331 40.7117 7.06135 46.908 7.06135C51.1411 7.06135 55.8037 8.99386 57.0307 15.1595ZM64.3006 10.3742C65.1902 8.84048 67.4295 7.21472 70.6503 7.21472C75.8957 7.21472 77.5522 10.3129 77.5522 15.865V28.1656H71.2945V17.4601C71.2945 14.546 71.2025 12.1534 68.1656 12.1534C65.4663 12.1534 64.3313 13.9018 64.3313 17.7362V28.227H58.0736V0.619629H64.3313L64.3006 10.3742ZM91.9693 13.6871C91.5399 12.1534 89.9448 11.7239 87.9816 11.7239C85.8037 11.7239 84.7301 12.2454 84.7301 13.2577C84.7301 14.2086 85.4663 14.7607 87.2454 15.0982L91.0798 15.773C95.9877 16.6626 98.3497 18.135 98.3497 21.7239C98.3497 26.3251 94.1166 28.6564 88.4417 28.6564C82.9816 28.6564 79.1166 26.3558 78.411 21.5092H84.2393C84.7914 23.4724 86.3865 24.0859 88.5337 24.0859C90.773 24.0859 92.3374 23.4724 92.3374 22.2454C92.3374 21.3558 91.5399 20.7423 89.1166 20.3436L85.4663 19.7301C81.5092 19.0859 78.8098 17.092 78.8098 13.4724C78.8098 9.39263 83.1043 7.15337 88.1656 7.15337C92.8282 7.15337 97.092 9.02453 97.8589 13.7178L91.9693 13.6871ZM101.571 2.06135H107.828V7.64417H112.337V12.092H107.828V21.2638C107.828 23.1963 108.442 23.5644 110.528 23.5644H112.307V28.1043H108.35C103.288 28.1043 101.571 27.1227 101.571 22.3681V12.092H98.3497V7.64417H101.571V2.06135ZM126.632 14.546C126.632 12.092 125.466 11.2945 123.166 11.2945C121.141 11.2945 119.791 12.3374 119.515 14.3006H113.656C113.963 10.4356 117.613 7.03067 123.687 7.03067C129.607 7.03067 132.951 9.42331 132.828 15.6503L132.736 20.0982V22.2454C132.736 24.4847 132.89 26.908 133.196 28.1656H127.031L126.939 25.681C125.405 27.8589 122.982 28.6564 120.037 28.6564C116.141 28.6564 112.951 26.3865 112.951 22.6442C112.951 17.6135 118.626 15.9877 126.571 15.3742L126.632 14.546ZM126.816 19.0552C122.429 19.4847 119.515 19.9141 119.515 22.184C119.515 23.5031 120.773 24.3926 122.399 24.3926C124.914 24.3926 126.816 23.319 126.816 19.546V19.0552ZM147.184 13.6871C146.632 13.5951 146.018 13.5337 145.466 13.5644C142.429 13.5644 140.865 14.6687 140.865 17.8589V28.135H134.577V7.64417H140.62V11.5399C141.571 9.08589 143.288 7.64417 146.202 7.52147H146.663C146.847 7.52147 147 7.52147 147.184 7.55214V13.6871ZM161.049 13.6871C160.62 12.1534 159.025 11.7239 157.061 11.7239C154.883 11.7239 153.81 12.2454 153.81 13.2577C153.81 14.2086 154.546 14.7607 156.325 15.0982L160.129 15.773C165.037 16.6626 167.399 18.135 167.399 21.7239C167.399 26.3251 163.166 28.6564 157.491 28.6564C152.061 28.6564 148.166 26.3558 147.46 21.5092H153.288C153.84 23.4724 155.436 24.0859 157.583 24.0859C159.822 24.0859 161.387 23.4724 161.387 22.2454C161.387 21.3558 160.589 20.7423 158.166 20.3436L154.515 19.7301C150.558 19.0859 147.89 17.092 147.89 13.4724C147.89 9.39263 152.184 7.15337 157.245 7.15337C161.908 7.15337 166.172 9.02453 166.939 13.7178L161.049 13.6871Z" fill="black"/>
<path d="M167.276 33.4416V28.1655H184.209V33.4416H167.276Z" fill="#39C463"/>
</svg>
