<svg width="15" height="15" viewBox="0 0 15 15" fill="none" xmlns="http://www.w3.org/2000/svg">
<g clip-path="url(#clip0_6881_3263)">
<path d="M14.1919 14.1919C13.9482 14.4357 13.5519 14.4357 13.3082 14.1919L12.4244 13.3082L11.54 14.1919C11.3 14.44 10.9044 14.4469 10.6563 14.2075C10.4082 13.9675 10.4013 13.5719 10.6407 13.3238C10.6457 13.3188 10.6507 13.3132 10.6563 13.3082L11.54 12.4244L10.6563 11.54C10.4082 11.3 10.4013 10.9044 10.6407 10.6563C10.8807 10.4082 11.2763 10.4013 11.5244 10.6407C11.5294 10.6457 11.535 10.6507 11.54 10.6563L12.4244 11.54L13.3082 10.6563C13.5482 10.4082 13.9438 10.4013 14.1919 10.6407C14.44 10.8807 14.4469 11.2763 14.2075 11.5244C14.2025 11.5294 14.1975 11.535 14.1919 11.54L13.3082 12.4244L14.1919 13.3082C14.4369 13.5513 14.44 13.945 14.1969 14.19C14.1957 14.1913 14.195 14.1925 14.1919 14.1919Z" fill="#FF0000"/>
<path d="M8.77193 12.5093C8.76943 10.4487 10.4376 8.77621 12.4976 8.77309C13.2994 8.77184 14.0807 9.02934 14.7244 9.50746C15.8326 5.51684 13.4957 1.38371 9.50568 0.275585C5.51568 -0.83254 1.38318 1.50371 0.275053 5.49434C-0.833072 9.48496 1.5038 13.6187 5.4938 14.7268C6.8063 15.0912 8.19318 15.0912 9.50568 14.7268C9.02943 14.0856 8.77193 13.3081 8.77193 12.5093ZM8.12505 7.51371C8.12505 7.67996 8.0588 7.83871 7.9413 7.95621L6.06318 9.83496C5.81443 10.075 5.41818 10.0681 5.17818 9.81934C4.9438 9.57684 4.9438 9.19184 5.17818 8.94934L6.87318 7.25434V4.38309C6.87318 4.03746 7.15318 3.75684 7.49943 3.75684C7.84505 3.75684 8.12505 4.03746 8.12505 4.38309V7.51371Z" fill="#FF0000"/>
</g>
<defs>
<clipPath id="clip0_6881_3263">
<rect width="15" height="15" fill="white"/>
</clipPath>
</defs>
</svg>
