<svg width="18" height="18" viewBox="0 0 18 18" fill="none" xmlns="http://www.w3.org/2000/svg">
<g clip-path="url(#clip0_503_198)">
<path d="M16.1572 5.32801C16.1677 5.48626 16.1677 5.64526 16.1677 5.80501C16.1677 10.6853 12.4522 16.3125 5.66024 16.3125V16.3095C3.65399 16.3125 1.68899 15.738 -7.62939e-06 14.6543C0.291742 14.6895 0.584992 14.7068 0.878992 14.7075C2.54249 14.709 4.15799 14.151 5.46524 13.1235C3.88499 13.0935 2.49899 12.063 2.01524 10.5585C2.56874 10.665 3.13874 10.6433 3.68249 10.4955C1.95899 10.1475 0.719992 8.63326 0.719992 6.87526C0.719992 6.85951 0.719992 6.84376 0.719992 6.82876C1.23374 7.11526 1.80824 7.27351 2.39624 7.29076C0.773242 6.20701 0.272242 4.04851 1.25249 2.36101C3.12749 4.66801 5.89424 6.07051 8.86349 6.21976C8.56574 4.93726 8.97299 3.59326 9.93149 2.69101C11.4187 1.29226 13.758 1.36426 15.1567 2.85151C15.984 2.68876 16.7767 2.38501 17.502 1.95526C17.226 2.81026 16.6492 3.53626 15.8782 3.99826C16.611 3.91051 17.3257 3.71476 18 3.41626C17.5042 4.15801 16.8802 4.80526 16.1572 5.32801Z" fill="white"/>
</g>
<defs>
<clipPath id="clip0_503_198">
<rect width="18" height="18" fill="white"/>
</clipPath>
</defs>
</svg>
