<svg width="20" height="20" viewBox="0 0 20 20" fill="none" xmlns="http://www.w3.org/2000/svg">
<g clip-path="url(#clip0_2311_3442)">
<path d="M15.4551 10.6359C15.4751 9.07757 16.2918 7.6384 17.6193 6.82257C16.7785 5.6209 15.4193 4.88673 13.9535 4.8409C12.411 4.67923 10.916 5.7634 10.1301 5.7634C9.3293 5.7634 8.1193 4.85673 6.81597 4.8834C5.1018 4.93923 3.5418 5.89007 2.70764 7.38923C0.931804 10.4642 2.25597 14.9842 3.95764 17.4701C4.8093 18.6876 5.80347 20.0467 7.10597 19.9992C8.38014 19.9467 8.85597 19.1867 10.3935 19.1867C11.9168 19.1867 12.3635 19.9992 13.6918 19.9684C15.0585 19.9459 15.9201 18.7459 16.7418 17.5167C17.3535 16.6492 17.8243 15.6909 18.136 14.6767C16.5126 13.9901 15.4568 12.3992 15.4551 10.6359Z" fill="#414042"/>
<path d="M12.9462 3.20583C13.6912 2.31083 14.0587 1.16083 13.9695 0C12.8312 0.12 11.7787 0.664167 11.0237 1.52417C10.2778 2.37333 9.89951 3.48333 9.97284 4.61167C11.127 4.62333 12.2228 4.105 12.9462 3.20583Z" fill="#414042"/>
</g>
<defs>
<clipPath id="clip0_2311_3442">
<rect width="20" height="20" fill="white"/>
</clipPath>
</defs>
</svg>
