<svg width="70" height="70" viewBox="0 0 70 70" fill="none" xmlns="http://www.w3.org/2000/svg">
<circle cx="35" cy="35" r="35" fill="#FF0000" fill-opacity="0.2"/>
<g clip-path="url(#clip0_5399_3439)">
<path d="M50 35C50 37.9667 49.1203 40.8668 47.472 43.3336C45.8238 45.8003 43.4811 47.7229 40.7403 48.8582C37.9994 49.9935 34.9834 50.2906 32.0737 49.7118C29.1639 49.133 26.4912 47.7044 24.3934 45.6066C22.2956 43.5088 20.867 40.8361 20.2882 37.9264C19.7094 35.0166 20.0065 32.0006 21.1418 29.2597C22.2771 26.5189 24.1997 24.1762 26.6665 22.528C29.1332 20.8797 32.0333 20 35 20C38.9769 20.0043 42.7897 21.586 45.6019 24.3981C48.414 27.2103 49.9957 31.0231 50 35ZM36.25 26.25H33.75V38.75H36.25V26.25ZM36.25 41.25H33.75V43.75H36.25V41.25Z" fill="#FF0000"/>
</g>
<defs>
<clipPath id="clip0_5399_3439">
<rect width="30" height="30" fill="white" transform="translate(20 20)"/>
</clipPath>
</defs>
</svg>
