<svg width="18" height="18" viewBox="0 0 18 18" fill="none" xmlns="http://www.w3.org/2000/svg">
<g clip-path="url(#clip0_503_213)">
<path d="M17.6235 4.63942C17.4165 3.86017 16.8067 3.24592 16.032 3.03742C14.6287 2.65942 8.99999 2.65942 8.99999 2.65942C8.99999 2.65942 3.37124 2.65942 1.96724 3.03742C1.19324 3.24592 0.583492 3.85942 0.376492 4.63942C-7.62939e-06 6.05242 -7.62939e-06 8.99992 -7.62939e-06 8.99992C-7.62939e-06 8.99992 -7.62939e-06 11.9474 0.376492 13.3604C0.583492 14.1397 1.19324 14.7539 1.96799 14.9624C3.37124 15.3404 8.99999 15.3404 8.99999 15.3404C8.99999 15.3404 14.6287 15.3404 16.0327 14.9624C16.8067 14.7539 17.4165 14.1404 17.6242 13.3604C18 11.9474 18 8.99992 18 8.99992C18 8.99992 18 6.05242 17.6235 4.63942ZM7.15949 11.6767V6.32317L11.8635 8.99992L7.15949 11.6767Z" fill="white"/>
</g>
<defs>
<clipPath id="clip0_503_213">
<rect width="18" height="18" fill="white"/>
</clipPath>
</defs>
</svg>
